<?xml version="1.0" encoding="utf-8" standalone="no"?>
<!DOCTYPE svg PUBLIC "-//W3C//DTD SVG 1.1//EN"
  "http://www.w3.org/Graphics/SVG/1.1/DTD/svg11.dtd">
<svg xmlns:xlink="http://www.w3.org/1999/xlink" width="527.024531pt" height="353.658937pt" viewBox="0 0 527.024531 353.658937" xmlns="http://www.w3.org/2000/svg" version="1.1">
 <metadata>
  <rdf:RDF xmlns:dc="http://purl.org/dc/elements/1.1/" xmlns:cc="http://creativecommons.org/ns#" xmlns:rdf="http://www.w3.org/1999/02/22-rdf-syntax-ns#">
   <cc:Work>
    <dc:type rdf:resource="http://purl.org/dc/dcmitype/StillImage"/>
    <dc:date>2026-07-13T22:50:44.121637</dc:date>
    <dc:format>image/svg+xml</dc:format>
    <dc:creator>
     <cc:Agent>
      <dc:title>Matplotlib v3.10.9, https://matplotlib.org/</dc:title>
     </cc:Agent>
    </dc:creator>
   </cc:Work>
  </rdf:RDF>
 </metadata>
 <defs>
  <style type="text/css">*{stroke-linejoin: round; stroke-linecap: butt}</style>
 </defs>
 <g id="figure_1">
  <g id="patch_1">
   <path d="M 0 353.658937 
L 527.024531 353.658937 
L 527.024531 0 
L 0 0 
z
" style="fill: #ffffff"/>
  </g>
  <g id="axes_1">
   <g id="patch_2">
    <path d="M 45.904531 318.038312 
L 519.824531 318.038312 
L 519.824531 21.838312 
L 45.904531 21.838312 
z
" style="fill: #ffffff"/>
   </g>
   <g id="matplotlib.axis_1">
    <g id="xtick_1">
     <g id="line2d_1">
      <path d="M 67.446349 318.038312 
L 67.446349 21.838312 
" clip-path="url(#pe02b7e1afc)" style="fill: none; stroke: #b0b0b0; stroke-opacity: 0.25; stroke-width: 0.8; stroke-linecap: square"/>
     </g>
     <g id="line2d_2">
      <defs>
       <path id="m8ab0ff2381" d="M 0 0 
L 0 3.5 
" style="stroke: #000000; stroke-width: 0.8"/>
      </defs>
      <g>
       <use xlink:href="#m8ab0ff2381" x="67.446349" y="318.038312" style="stroke: #000000; stroke-width: 0.8"/>
      </g>
     </g>
     <g id="text_1">
      <!-- −200 -->
      <g transform="translate(55.086115 331.876906) scale(0.09 -0.09)">
       <defs>
        <path id="DejaVuSerif-2212" d="M 678 2259 
L 4684 2259 
L 4684 1753 
L 678 1753 
L 678 2259 
z
" transform="scale(0.015625)"/>
        <path id="DejaVuSerif-32" d="M 819 3553 
L 469 3553 
L 469 4384 
Q 803 4563 1142 4656 
Q 1481 4750 1806 4750 
Q 2534 4750 2956 4397 
Q 3378 4044 3378 3438 
Q 3378 2753 2422 1800 
Q 2347 1728 2309 1691 
L 1131 513 
L 3078 513 
L 3078 1088 
L 3444 1088 
L 3444 0 
L 434 0 
L 434 341 
L 1850 1753 
Q 2319 2222 2519 2614 
Q 2719 3006 2719 3438 
Q 2719 3909 2473 4175 
Q 2228 4441 1797 4441 
Q 1350 4441 1106 4219 
Q 863 3997 819 3553 
z
" transform="scale(0.015625)"/>
        <path id="DejaVuSerif-30" d="M 2034 219 
Q 2513 219 2750 744 
Q 2988 1269 2988 2328 
Q 2988 3391 2750 3916 
Q 2513 4441 2034 4441 
Q 1556 4441 1318 3916 
Q 1081 3391 1081 2328 
Q 1081 1269 1318 744 
Q 1556 219 2034 219 
z
M 2034 -91 
Q 1275 -91 848 546 
Q 422 1184 422 2328 
Q 422 3475 848 4112 
Q 1275 4750 2034 4750 
Q 2797 4750 3222 4112 
Q 3647 3475 3647 2328 
Q 3647 1184 3222 546 
Q 2797 -91 2034 -91 
z
" transform="scale(0.015625)"/>
       </defs>
       <use xlink:href="#DejaVuSerif-2212"/>
       <use xlink:href="#DejaVuSerif-32" transform="translate(83.789062 0)"/>
       <use xlink:href="#DejaVuSerif-30" transform="translate(147.412109 0)"/>
       <use xlink:href="#DejaVuSerif-30" transform="translate(211.035156 0)"/>
      </g>
     </g>
    </g>
    <g id="xtick_2">
     <g id="line2d_3">
      <path d="M 121.300895 318.038312 
L 121.300895 21.838312 
" clip-path="url(#pe02b7e1afc)" style="fill: none; stroke: #b0b0b0; stroke-opacity: 0.25; stroke-width: 0.8; stroke-linecap: square"/>
     </g>
     <g id="line2d_4">
      <g>
       <use xlink:href="#m8ab0ff2381" x="121.300895" y="318.038312" style="stroke: #000000; stroke-width: 0.8"/>
      </g>
     </g>
     <g id="text_2">
      <!-- −150 -->
      <g transform="translate(108.940661 331.876906) scale(0.09 -0.09)">
       <defs>
        <path id="DejaVuSerif-31" d="M 909 0 
L 909 331 
L 1722 331 
L 1722 4213 
L 781 3603 
L 781 4013 
L 1919 4750 
L 2350 4750 
L 2350 331 
L 3163 331 
L 3163 0 
L 909 0 
z
" transform="scale(0.015625)"/>
        <path id="DejaVuSerif-35" d="M 3219 4666 
L 3219 4153 
L 1081 4153 
L 1081 2816 
Q 1244 2928 1461 2984 
Q 1678 3041 1947 3041 
Q 2703 3041 3140 2622 
Q 3578 2203 3578 1478 
Q 3578 738 3136 323 
Q 2694 -91 1894 -91 
Q 1572 -91 1234 -12 
Q 897 66 544 225 
L 544 1131 
L 897 1131 
Q 925 688 1179 453 
Q 1434 219 1894 219 
Q 2388 219 2653 544 
Q 2919 869 2919 1478 
Q 2919 2084 2655 2407 
Q 2391 2731 1894 2731 
Q 1613 2731 1398 2631 
Q 1184 2531 1019 2322 
L 750 2322 
L 750 4666 
L 3219 4666 
z
" transform="scale(0.015625)"/>
       </defs>
       <use xlink:href="#DejaVuSerif-2212"/>
       <use xlink:href="#DejaVuSerif-31" transform="translate(83.789062 0)"/>
       <use xlink:href="#DejaVuSerif-35" transform="translate(147.412109 0)"/>
       <use xlink:href="#DejaVuSerif-30" transform="translate(211.035156 0)"/>
      </g>
     </g>
    </g>
    <g id="xtick_3">
     <g id="line2d_5">
      <path d="M 175.15544 318.038312 
L 175.15544 21.838312 
" clip-path="url(#pe02b7e1afc)" style="fill: none; stroke: #b0b0b0; stroke-opacity: 0.25; stroke-width: 0.8; stroke-linecap: square"/>
     </g>
     <g id="line2d_6">
      <g>
       <use xlink:href="#m8ab0ff2381" x="175.15544" y="318.038312" style="stroke: #000000; stroke-width: 0.8"/>
      </g>
     </g>
     <g id="text_3">
      <!-- −100 -->
      <g transform="translate(162.795206 331.876906) scale(0.09 -0.09)">
       <use xlink:href="#DejaVuSerif-2212"/>
       <use xlink:href="#DejaVuSerif-31" transform="translate(83.789062 0)"/>
       <use xlink:href="#DejaVuSerif-30" transform="translate(147.412109 0)"/>
       <use xlink:href="#DejaVuSerif-30" transform="translate(211.035156 0)"/>
      </g>
     </g>
    </g>
    <g id="xtick_4">
     <g id="line2d_7">
      <path d="M 229.009986 318.038312 
L 229.009986 21.838312 
" clip-path="url(#pe02b7e1afc)" style="fill: none; stroke: #b0b0b0; stroke-opacity: 0.25; stroke-width: 0.8; stroke-linecap: square"/>
     </g>
     <g id="line2d_8">
      <g>
       <use xlink:href="#m8ab0ff2381" x="229.009986" y="318.038312" style="stroke: #000000; stroke-width: 0.8"/>
      </g>
     </g>
     <g id="text_4">
      <!-- −50 -->
      <g transform="translate(219.512876 331.876906) scale(0.09 -0.09)">
       <use xlink:href="#DejaVuSerif-2212"/>
       <use xlink:href="#DejaVuSerif-35" transform="translate(83.789062 0)"/>
       <use xlink:href="#DejaVuSerif-30" transform="translate(147.412109 0)"/>
      </g>
     </g>
    </g>
    <g id="xtick_5">
     <g id="line2d_9">
      <path d="M 282.864531 318.038312 
L 282.864531 21.838312 
" clip-path="url(#pe02b7e1afc)" style="fill: none; stroke: #b0b0b0; stroke-opacity: 0.25; stroke-width: 0.8; stroke-linecap: square"/>
     </g>
     <g id="line2d_10">
      <g>
       <use xlink:href="#m8ab0ff2381" x="282.864531" y="318.038312" style="stroke: #000000; stroke-width: 0.8"/>
      </g>
     </g>
     <g id="text_5">
      <!-- 0 -->
      <g transform="translate(280.001406 331.876906) scale(0.09 -0.09)">
       <use xlink:href="#DejaVuSerif-30"/>
      </g>
     </g>
    </g>
    <g id="xtick_6">
     <g id="line2d_11">
      <path d="M 336.719077 318.038312 
L 336.719077 21.838312 
" clip-path="url(#pe02b7e1afc)" style="fill: none; stroke: #b0b0b0; stroke-opacity: 0.25; stroke-width: 0.8; stroke-linecap: square"/>
     </g>
     <g id="line2d_12">
      <g>
       <use xlink:href="#m8ab0ff2381" x="336.719077" y="318.038312" style="stroke: #000000; stroke-width: 0.8"/>
      </g>
     </g>
     <g id="text_6">
      <!-- 50 -->
      <g transform="translate(330.992827 331.876906) scale(0.09 -0.09)">
       <use xlink:href="#DejaVuSerif-35"/>
       <use xlink:href="#DejaVuSerif-30" transform="translate(63.623047 0)"/>
      </g>
     </g>
    </g>
    <g id="xtick_7">
     <g id="line2d_13">
      <path d="M 390.573622 318.038312 
L 390.573622 21.838312 
" clip-path="url(#pe02b7e1afc)" style="fill: none; stroke: #b0b0b0; stroke-opacity: 0.25; stroke-width: 0.8; stroke-linecap: square"/>
     </g>
     <g id="line2d_14">
      <g>
       <use xlink:href="#m8ab0ff2381" x="390.573622" y="318.038312" style="stroke: #000000; stroke-width: 0.8"/>
      </g>
     </g>
     <g id="text_7">
      <!-- 100 -->
      <g transform="translate(381.984247 331.876906) scale(0.09 -0.09)">
       <use xlink:href="#DejaVuSerif-31"/>
       <use xlink:href="#DejaVuSerif-30" transform="translate(63.623047 0)"/>
       <use xlink:href="#DejaVuSerif-30" transform="translate(127.246094 0)"/>
      </g>
     </g>
    </g>
    <g id="xtick_8">
     <g id="line2d_15">
      <path d="M 444.428168 318.038312 
L 444.428168 21.838312 
" clip-path="url(#pe02b7e1afc)" style="fill: none; stroke: #b0b0b0; stroke-opacity: 0.25; stroke-width: 0.8; stroke-linecap: square"/>
     </g>
     <g id="line2d_16">
      <g>
       <use xlink:href="#m8ab0ff2381" x="444.428168" y="318.038312" style="stroke: #000000; stroke-width: 0.8"/>
      </g>
     </g>
     <g id="text_8">
      <!-- 150 -->
      <g transform="translate(435.838793 331.876906) scale(0.09 -0.09)">
       <use xlink:href="#DejaVuSerif-31"/>
       <use xlink:href="#DejaVuSerif-35" transform="translate(63.623047 0)"/>
       <use xlink:href="#DejaVuSerif-30" transform="translate(127.246094 0)"/>
      </g>
     </g>
    </g>
    <g id="xtick_9">
     <g id="line2d_17">
      <path d="M 498.282713 318.038312 
L 498.282713 21.838312 
" clip-path="url(#pe02b7e1afc)" style="fill: none; stroke: #b0b0b0; stroke-opacity: 0.25; stroke-width: 0.8; stroke-linecap: square"/>
     </g>
     <g id="line2d_18">
      <g>
       <use xlink:href="#m8ab0ff2381" x="498.282713" y="318.038312" style="stroke: #000000; stroke-width: 0.8"/>
      </g>
     </g>
     <g id="text_9">
      <!-- 200 -->
      <g transform="translate(489.693338 331.876906) scale(0.09 -0.09)">
       <use xlink:href="#DejaVuSerif-32"/>
       <use xlink:href="#DejaVuSerif-30" transform="translate(63.623047 0)"/>
       <use xlink:href="#DejaVuSerif-30" transform="translate(127.246094 0)"/>
      </g>
     </g>
    </g>
    <g id="text_10">
     <!-- Desplazamiento en el extremo [mm] -->
     <g transform="translate(200.210078 344.587219) scale(0.09 -0.09)">
      <defs>
       <path id="DejaVuSerif-44" d="M 1581 331 
L 2163 331 
Q 3072 331 3558 850 
Q 4044 1369 4044 2338 
Q 4044 3306 3559 3818 
Q 3075 4331 2163 4331 
L 1581 4331 
L 1581 331 
z
M 353 0 
L 353 331 
L 947 331 
L 947 4331 
L 353 4331 
L 353 4666 
L 2209 4666 
Q 3416 4666 4089 4050 
Q 4763 3434 4763 2338 
Q 4763 1238 4088 619 
Q 3413 0 2209 0 
L 353 0 
z
" transform="scale(0.015625)"/>
       <path id="DejaVuSerif-65" d="M 3469 1600 
L 991 1600 
L 991 1575 
Q 991 903 1244 561 
Q 1497 219 1991 219 
Q 2369 219 2611 417 
Q 2853 616 2950 1006 
L 3413 1006 
Q 3275 459 2904 184 
Q 2534 -91 1931 -91 
Q 1203 -91 761 389 
Q 319 869 319 1663 
Q 319 2450 753 2931 
Q 1188 3413 1894 3413 
Q 2647 3413 3050 2948 
Q 3453 2484 3469 1600 
z
M 2791 1931 
Q 2772 2513 2545 2808 
Q 2319 3103 1894 3103 
Q 1497 3103 1269 2806 
Q 1041 2509 991 1931 
L 2791 1931 
z
" transform="scale(0.015625)"/>
       <path id="DejaVuSerif-73" d="M 359 184 
L 359 959 
L 691 959 
Q 703 588 923 403 
Q 1144 219 1575 219 
Q 1963 219 2166 364 
Q 2369 509 2369 788 
Q 2369 1006 2220 1140 
Q 2072 1275 1594 1428 
L 1178 1569 
Q 750 1706 558 1912 
Q 366 2119 366 2438 
Q 366 2894 700 3153 
Q 1034 3413 1625 3413 
Q 1888 3413 2178 3344 
Q 2469 3275 2778 3144 
L 2778 2419 
L 2447 2419 
Q 2434 2741 2221 2922 
Q 2009 3103 1644 3103 
Q 1281 3103 1095 2975 
Q 909 2847 909 2591 
Q 909 2381 1050 2254 
Q 1191 2128 1613 1997 
L 2069 1856 
Q 2541 1709 2748 1489 
Q 2956 1269 2956 922 
Q 2956 450 2595 179 
Q 2234 -91 1600 -91 
Q 1278 -91 972 -22 
Q 666 47 359 184 
z
" transform="scale(0.015625)"/>
       <path id="DejaVuSerif-70" d="M 1313 1825 
L 1313 1497 
Q 1313 897 1542 583 
Q 1772 269 2209 269 
Q 2650 269 2876 622 
Q 3103 975 3103 1663 
Q 3103 2353 2876 2703 
Q 2650 3053 2209 3053 
Q 1772 3053 1542 2737 
Q 1313 2422 1313 1825 
z
M 738 2988 
L 184 2988 
L 184 3322 
L 1313 3322 
L 1313 2803 
Q 1481 3116 1742 3264 
Q 2003 3413 2388 3413 
Q 3000 3413 3387 2928 
Q 3775 2444 3775 1663 
Q 3775 881 3387 395 
Q 3000 -91 2388 -91 
Q 2003 -91 1742 57 
Q 1481 206 1313 519 
L 1313 -997 
L 1856 -997 
L 1856 -1331 
L 184 -1331 
L 184 -997 
L 738 -997 
L 738 2988 
z
" transform="scale(0.015625)"/>
       <path id="DejaVuSerif-6c" d="M 1313 331 
L 1856 331 
L 1856 0 
L 184 0 
L 184 331 
L 738 331 
L 738 4531 
L 184 4531 
L 184 4863 
L 1313 4863 
L 1313 331 
z
" transform="scale(0.015625)"/>
       <path id="DejaVuSerif-61" d="M 2547 1044 
L 2547 1747 
L 1806 1747 
Q 1378 1747 1168 1562 
Q 959 1378 959 997 
Q 959 650 1171 447 
Q 1384 244 1747 244 
Q 2106 244 2326 466 
Q 2547 688 2547 1044 
z
M 3122 2075 
L 3122 331 
L 3634 331 
L 3634 0 
L 2547 0 
L 2547 359 
Q 2356 128 2106 18 
Q 1856 -91 1522 -91 
Q 969 -91 644 203 
Q 319 497 319 997 
Q 319 1513 691 1797 
Q 1063 2081 1741 2081 
L 2547 2081 
L 2547 2309 
Q 2547 2688 2317 2895 
Q 2088 3103 1672 3103 
Q 1328 3103 1125 2947 
Q 922 2791 872 2484 
L 575 2484 
L 575 3156 
Q 875 3284 1158 3348 
Q 1441 3413 1709 3413 
Q 2400 3413 2761 3070 
Q 3122 2728 3122 2075 
z
" transform="scale(0.015625)"/>
       <path id="DejaVuSerif-7a" d="M 256 0 
L 256 269 
L 2338 2988 
L 691 2988 
L 691 2413 
L 359 2413 
L 359 3322 
L 3078 3322 
L 3078 3053 
L 997 331 
L 2803 331 
L 2803 934 
L 3138 934 
L 3138 0 
L 256 0 
z
" transform="scale(0.015625)"/>
       <path id="DejaVuSerif-6d" d="M 3316 2675 
Q 3481 3041 3739 3227 
Q 3997 3413 4341 3413 
Q 4863 3413 5119 3089 
Q 5375 2766 5375 2113 
L 5375 331 
L 5894 331 
L 5894 0 
L 4300 0 
L 4300 331 
L 4800 331 
L 4800 2047 
Q 4800 2556 4650 2772 
Q 4500 2988 4153 2988 
Q 3769 2988 3567 2697 
Q 3366 2406 3366 1850 
L 3366 331 
L 3866 331 
L 3866 0 
L 2291 0 
L 2291 331 
L 2791 331 
L 2791 2069 
Q 2791 2566 2641 2777 
Q 2491 2988 2144 2988 
Q 1759 2988 1557 2697 
Q 1356 2406 1356 1850 
L 1356 331 
L 1856 331 
L 1856 0 
L 263 0 
L 263 331 
L 781 331 
L 781 2994 
L 231 2994 
L 231 3322 
L 1356 3322 
L 1356 2731 
Q 1516 3063 1762 3238 
Q 2009 3413 2322 3413 
Q 2709 3413 2968 3220 
Q 3228 3028 3316 2675 
z
" transform="scale(0.015625)"/>
       <path id="DejaVuSerif-69" d="M 622 4353 
Q 622 4497 726 4603 
Q 831 4709 978 4709 
Q 1122 4709 1226 4603 
Q 1331 4497 1331 4353 
Q 1331 4206 1228 4103 
Q 1125 4000 978 4000 
Q 831 4000 726 4103 
Q 622 4206 622 4353 
z
M 1356 331 
L 1900 331 
L 1900 0 
L 231 0 
L 231 331 
L 781 331 
L 781 2988 
L 231 2988 
L 231 3322 
L 1356 3322 
L 1356 331 
z
" transform="scale(0.015625)"/>
       <path id="DejaVuSerif-6e" d="M 263 0 
L 263 331 
L 781 331 
L 781 2988 
L 231 2988 
L 231 3322 
L 1356 3322 
L 1356 2731 
Q 1516 3069 1770 3241 
Q 2025 3413 2363 3413 
Q 2913 3413 3172 3097 
Q 3431 2781 3431 2113 
L 3431 331 
L 3944 331 
L 3944 0 
L 2356 0 
L 2356 331 
L 2853 331 
L 2853 1931 
Q 2853 2541 2703 2767 
Q 2553 2994 2175 2994 
Q 1775 2994 1565 2701 
Q 1356 2409 1356 1850 
L 1356 331 
L 1856 331 
L 1856 0 
L 263 0 
z
" transform="scale(0.015625)"/>
       <path id="DejaVuSerif-74" d="M 691 2988 
L 184 2988 
L 184 3322 
L 691 3322 
L 691 4353 
L 1269 4353 
L 1269 3322 
L 2350 3322 
L 2350 2988 
L 1269 2988 
L 1269 878 
Q 1269 456 1350 337 
Q 1431 219 1650 219 
Q 1875 219 1978 351 
Q 2081 484 2088 781 
L 2522 781 
Q 2497 328 2275 118 
Q 2053 -91 1600 -91 
Q 1103 -91 897 129 
Q 691 350 691 878 
L 691 2988 
z
" transform="scale(0.015625)"/>
       <path id="DejaVuSerif-6f" d="M 1925 219 
Q 2388 219 2623 584 
Q 2859 950 2859 1663 
Q 2859 2375 2623 2739 
Q 2388 3103 1925 3103 
Q 1463 3103 1227 2739 
Q 991 2375 991 1663 
Q 991 950 1228 584 
Q 1466 219 1925 219 
z
M 1925 -91 
Q 1200 -91 759 389 
Q 319 869 319 1663 
Q 319 2456 758 2934 
Q 1197 3413 1925 3413 
Q 2653 3413 3092 2934 
Q 3531 2456 3531 1663 
Q 3531 869 3092 389 
Q 2653 -91 1925 -91 
z
" transform="scale(0.015625)"/>
       <path id="DejaVuSerif-20" transform="scale(0.015625)"/>
       <path id="DejaVuSerif-78" d="M 1863 2028 
L 2559 2988 
L 2113 2988 
L 2113 3322 
L 3391 3322 
L 3391 2988 
L 2950 2988 
L 2059 1759 
L 3097 331 
L 3531 331 
L 3531 0 
L 1997 0 
L 1997 331 
L 2419 331 
L 1697 1325 
L 972 331 
L 1403 331 
L 1403 0 
L 141 0 
L 141 331 
L 581 331 
L 1497 1594 
L 488 2988 
L 78 2988 
L 78 3322 
L 1563 3322 
L 1563 2988 
L 1166 2988 
L 1863 2028 
z
" transform="scale(0.015625)"/>
       <path id="DejaVuSerif-72" d="M 3059 3328 
L 3059 2497 
L 2728 2497 
Q 2713 2744 2591 2866 
Q 2469 2988 2234 2988 
Q 1809 2988 1582 2694 
Q 1356 2400 1356 1850 
L 1356 331 
L 2022 331 
L 2022 0 
L 263 0 
L 263 331 
L 781 331 
L 781 2994 
L 231 2994 
L 231 3322 
L 1356 3322 
L 1356 2731 
Q 1525 3078 1790 3245 
Q 2056 3413 2438 3413 
Q 2578 3413 2733 3391 
Q 2888 3369 3059 3328 
z
" transform="scale(0.015625)"/>
       <path id="DejaVuSerif-5b" d="M 550 4863 
L 2003 4863 
L 2003 4531 
L 1147 4531 
L 1147 -513 
L 2003 -513 
L 2003 -844 
L 550 -844 
L 550 4863 
z
" transform="scale(0.015625)"/>
       <path id="DejaVuSerif-5d" d="M 1947 4863 
L 1947 -844 
L 494 -844 
L 494 -513 
L 1350 -513 
L 1350 4531 
L 494 4531 
L 494 4863 
L 1947 4863 
z
" transform="scale(0.015625)"/>
      </defs>
      <use xlink:href="#DejaVuSerif-44"/>
      <use xlink:href="#DejaVuSerif-65" transform="translate(80.175781 0)"/>
      <use xlink:href="#DejaVuSerif-73" transform="translate(139.355469 0)"/>
      <use xlink:href="#DejaVuSerif-70" transform="translate(190.673828 0)"/>
      <use xlink:href="#DejaVuSerif-6c" transform="translate(254.6875 0)"/>
      <use xlink:href="#DejaVuSerif-61" transform="translate(286.669922 0)"/>
      <use xlink:href="#DejaVuSerif-7a" transform="translate(346.289062 0)"/>
      <use xlink:href="#DejaVuSerif-61" transform="translate(398.974609 0)"/>
      <use xlink:href="#DejaVuSerif-6d" transform="translate(458.59375 0)"/>
      <use xlink:href="#DejaVuSerif-69" transform="translate(553.417969 0)"/>
      <use xlink:href="#DejaVuSerif-65" transform="translate(585.400391 0)"/>
      <use xlink:href="#DejaVuSerif-6e" transform="translate(644.580078 0)"/>
      <use xlink:href="#DejaVuSerif-74" transform="translate(708.984375 0)"/>
      <use xlink:href="#DejaVuSerif-6f" transform="translate(749.169922 0)"/>
      <use xlink:href="#DejaVuSerif-20" transform="translate(809.375 0)"/>
      <use xlink:href="#DejaVuSerif-65" transform="translate(841.162109 0)"/>
      <use xlink:href="#DejaVuSerif-6e" transform="translate(900.341797 0)"/>
      <use xlink:href="#DejaVuSerif-20" transform="translate(964.746094 0)"/>
      <use xlink:href="#DejaVuSerif-65" transform="translate(996.533203 0)"/>
      <use xlink:href="#DejaVuSerif-6c" transform="translate(1055.712891 0)"/>
      <use xlink:href="#DejaVuSerif-20" transform="translate(1087.695312 0)"/>
      <use xlink:href="#DejaVuSerif-65" transform="translate(1119.482422 0)"/>
      <use xlink:href="#DejaVuSerif-78" transform="translate(1178.662109 0)"/>
      <use xlink:href="#DejaVuSerif-74" transform="translate(1235.058594 0)"/>
      <use xlink:href="#DejaVuSerif-72" transform="translate(1275.244141 0)"/>
      <use xlink:href="#DejaVuSerif-65" transform="translate(1323.046875 0)"/>
      <use xlink:href="#DejaVuSerif-6d" transform="translate(1382.226562 0)"/>
      <use xlink:href="#DejaVuSerif-6f" transform="translate(1477.050781 0)"/>
      <use xlink:href="#DejaVuSerif-20" transform="translate(1537.255859 0)"/>
      <use xlink:href="#DejaVuSerif-5b" transform="translate(1569.042969 0)"/>
      <use xlink:href="#DejaVuSerif-6d" transform="translate(1608.056641 0)"/>
      <use xlink:href="#DejaVuSerif-6d" transform="translate(1702.880859 0)"/>
      <use xlink:href="#DejaVuSerif-5d" transform="translate(1797.705078 0)"/>
     </g>
    </g>
   </g>
   <g id="matplotlib.axis_2">
    <g id="ytick_1">
     <g id="line2d_19">
      <path d="M 45.904531 274.103793 
L 519.824531 274.103793 
" clip-path="url(#pe02b7e1afc)" style="fill: none; stroke: #b0b0b0; stroke-opacity: 0.25; stroke-width: 0.8; stroke-linecap: square"/>
     </g>
     <g id="line2d_20">
      <defs>
       <path id="md2ddbbd4a7" d="M 0 0 
L -3.5 0 
" style="stroke: #000000; stroke-width: 0.8"/>
      </defs>
      <g>
       <use xlink:href="#md2ddbbd4a7" x="45.904531" y="274.103793" style="stroke: #000000; stroke-width: 0.8"/>
      </g>
     </g>
     <g id="text_11">
      <!-- −40 -->
      <g transform="translate(19.910313 277.52309) scale(0.09 -0.09)">
       <defs>
        <path id="DejaVuSerif-34" d="M 2234 1581 
L 2234 4063 
L 641 1581 
L 2234 1581 
z
M 3609 0 
L 1484 0 
L 1484 331 
L 2234 331 
L 2234 1247 
L 197 1247 
L 197 1588 
L 2241 4750 
L 2859 4750 
L 2859 1581 
L 3750 1581 
L 3750 1247 
L 2859 1247 
L 2859 331 
L 3609 331 
L 3609 0 
z
" transform="scale(0.015625)"/>
       </defs>
       <use xlink:href="#DejaVuSerif-2212"/>
       <use xlink:href="#DejaVuSerif-34" transform="translate(83.789062 0)"/>
       <use xlink:href="#DejaVuSerif-30" transform="translate(147.412109 0)"/>
      </g>
     </g>
    </g>
    <g id="ytick_2">
     <g id="line2d_21">
      <path d="M 45.904531 217.835711 
L 519.824531 217.835711 
" clip-path="url(#pe02b7e1afc)" style="fill: none; stroke: #b0b0b0; stroke-opacity: 0.25; stroke-width: 0.8; stroke-linecap: square"/>
     </g>
     <g id="line2d_22">
      <g>
       <use xlink:href="#md2ddbbd4a7" x="45.904531" y="217.835711" style="stroke: #000000; stroke-width: 0.8"/>
      </g>
     </g>
     <g id="text_12">
      <!-- −20 -->
      <g transform="translate(19.910313 221.255008) scale(0.09 -0.09)">
       <use xlink:href="#DejaVuSerif-2212"/>
       <use xlink:href="#DejaVuSerif-32" transform="translate(83.789062 0)"/>
       <use xlink:href="#DejaVuSerif-30" transform="translate(147.412109 0)"/>
      </g>
     </g>
    </g>
    <g id="ytick_3">
     <g id="line2d_23">
      <path d="M 45.904531 161.567629 
L 519.824531 161.567629 
" clip-path="url(#pe02b7e1afc)" style="fill: none; stroke: #b0b0b0; stroke-opacity: 0.25; stroke-width: 0.8; stroke-linecap: square"/>
     </g>
     <g id="line2d_24">
      <g>
       <use xlink:href="#md2ddbbd4a7" x="45.904531" y="161.567629" style="stroke: #000000; stroke-width: 0.8"/>
      </g>
     </g>
     <g id="text_13">
      <!-- 0 -->
      <g transform="translate(33.178281 164.986926) scale(0.09 -0.09)">
       <use xlink:href="#DejaVuSerif-30"/>
      </g>
     </g>
    </g>
    <g id="ytick_4">
     <g id="line2d_25">
      <path d="M 45.904531 105.299547 
L 519.824531 105.299547 
" clip-path="url(#pe02b7e1afc)" style="fill: none; stroke: #b0b0b0; stroke-opacity: 0.25; stroke-width: 0.8; stroke-linecap: square"/>
     </g>
     <g id="line2d_26">
      <g>
       <use xlink:href="#md2ddbbd4a7" x="45.904531" y="105.299547" style="stroke: #000000; stroke-width: 0.8"/>
      </g>
     </g>
     <g id="text_14">
      <!-- 20 -->
      <g transform="translate(27.452031 108.718844) scale(0.09 -0.09)">
       <use xlink:href="#DejaVuSerif-32"/>
       <use xlink:href="#DejaVuSerif-30" transform="translate(63.623047 0)"/>
      </g>
     </g>
    </g>
    <g id="ytick_5">
     <g id="line2d_27">
      <path d="M 45.904531 49.031465 
L 519.824531 49.031465 
" clip-path="url(#pe02b7e1afc)" style="fill: none; stroke: #b0b0b0; stroke-opacity: 0.25; stroke-width: 0.8; stroke-linecap: square"/>
     </g>
     <g id="line2d_28">
      <g>
       <use xlink:href="#md2ddbbd4a7" x="45.904531" y="49.031465" style="stroke: #000000; stroke-width: 0.8"/>
      </g>
     </g>
     <g id="text_15">
      <!-- 40 -->
      <g transform="translate(27.452031 52.450762) scale(0.09 -0.09)">
       <use xlink:href="#DejaVuSerif-34"/>
       <use xlink:href="#DejaVuSerif-30" transform="translate(63.623047 0)"/>
      </g>
     </g>
    </g>
    <g id="text_16">
     <!-- Cortante basal [kN] -->
     <g transform="translate(14.038594 215.134484) rotate(-90) scale(0.09 -0.09)">
      <defs>
       <path id="DejaVuSerif-43" d="M 4513 1234 
Q 4306 581 3820 245 
Q 3334 -91 2591 -91 
Q 2134 -91 1743 65 
Q 1353 222 1050 525 
Q 700 875 529 1320 
Q 359 1766 359 2328 
Q 359 3416 987 4083 
Q 1616 4750 2644 4750 
Q 3025 4750 3456 4650 
Q 3888 4550 4384 4347 
L 4384 3272 
L 4031 3272 
Q 3916 3859 3567 4137 
Q 3219 4416 2591 4416 
Q 1844 4416 1459 3886 
Q 1075 3356 1075 2328 
Q 1075 1303 1459 773 
Q 1844 244 2591 244 
Q 3113 244 3450 492 
Q 3788 741 3938 1234 
L 4513 1234 
z
" transform="scale(0.015625)"/>
       <path id="DejaVuSerif-62" d="M 738 331 
L 738 4531 
L 184 4531 
L 184 4863 
L 1313 4863 
L 1313 2803 
Q 1481 3116 1742 3264 
Q 2003 3413 2388 3413 
Q 3000 3413 3387 2928 
Q 3775 2444 3775 1663 
Q 3775 881 3387 395 
Q 3000 -91 2388 -91 
Q 2003 -91 1742 57 
Q 1481 206 1313 519 
L 1313 0 
L 184 0 
L 184 331 
L 738 331 
z
M 1313 1497 
Q 1313 897 1542 583 
Q 1772 269 2209 269 
Q 2650 269 2876 622 
Q 3103 975 3103 1663 
Q 3103 2353 2876 2703 
Q 2650 3053 2209 3053 
Q 1772 3053 1542 2737 
Q 1313 2422 1313 1825 
L 1313 1497 
z
" transform="scale(0.015625)"/>
       <path id="DejaVuSerif-6b" d="M 1831 0 
L 219 0 
L 219 331 
L 738 331 
L 738 4531 
L 184 4531 
L 184 4863 
L 1313 4863 
L 1313 1697 
L 2713 2988 
L 2234 2988 
L 2234 3322 
L 3738 3322 
L 3738 2988 
L 3169 2988 
L 2181 2075 
L 3444 331 
L 3922 331 
L 3922 0 
L 2284 0 
L 2284 331 
L 2759 331 
L 1766 1697 
L 1313 1275 
L 1313 331 
L 1831 331 
L 1831 0 
z
" transform="scale(0.015625)"/>
       <path id="DejaVuSerif-4e" d="M 313 0 
L 313 331 
L 941 331 
L 941 4331 
L 313 4331 
L 313 4666 
L 1509 4666 
L 4306 984 
L 4306 4331 
L 3681 4331 
L 3681 4666 
L 5319 4666 
L 5319 4331 
L 4691 4331 
L 4691 -91 
L 4313 -91 
L 1325 3841 
L 1325 331 
L 1953 331 
L 1953 0 
L 313 0 
z
" transform="scale(0.015625)"/>
      </defs>
      <use xlink:href="#DejaVuSerif-43"/>
      <use xlink:href="#DejaVuSerif-6f" transform="translate(76.513672 0)"/>
      <use xlink:href="#DejaVuSerif-72" transform="translate(136.71875 0)"/>
      <use xlink:href="#DejaVuSerif-74" transform="translate(184.521484 0)"/>
      <use xlink:href="#DejaVuSerif-61" transform="translate(224.707031 0)"/>
      <use xlink:href="#DejaVuSerif-6e" transform="translate(284.326172 0)"/>
      <use xlink:href="#DejaVuSerif-74" transform="translate(348.730469 0)"/>
      <use xlink:href="#DejaVuSerif-65" transform="translate(388.916016 0)"/>
      <use xlink:href="#DejaVuSerif-20" transform="translate(448.095703 0)"/>
      <use xlink:href="#DejaVuSerif-62" transform="translate(479.882812 0)"/>
      <use xlink:href="#DejaVuSerif-61" transform="translate(543.896484 0)"/>
      <use xlink:href="#DejaVuSerif-73" transform="translate(603.515625 0)"/>
      <use xlink:href="#DejaVuSerif-61" transform="translate(654.833984 0)"/>
      <use xlink:href="#DejaVuSerif-6c" transform="translate(714.453125 0)"/>
      <use xlink:href="#DejaVuSerif-20" transform="translate(746.435547 0)"/>
      <use xlink:href="#DejaVuSerif-5b" transform="translate(778.222656 0)"/>
      <use xlink:href="#DejaVuSerif-6b" transform="translate(817.236328 0)"/>
      <use xlink:href="#DejaVuSerif-4e" transform="translate(877.832031 0)"/>
      <use xlink:href="#DejaVuSerif-5d" transform="translate(965.332031 0)"/>
     </g>
    </g>
   </g>
   <g id="line2d_29">
    <path d="M 282.864531 161.567629 
L 296.328168 175.811608 
L 309.791804 188.272575 
L 323.25544 200.561494 
L 336.719077 212.373626 
L 309.791804 186.911091 
L 282.864531 160.988851 
L 255.937259 134.862681 
L 229.009986 110.761674 
L 242.473622 123.375142 
L 255.937259 136.224126 
L 269.400895 149.067214 
L 282.864531 161.567755 
L 309.791804 186.911131 
L 336.719077 212.373886 
L 363.646349 222.457725 
L 390.573622 224.275473 
L 336.719077 173.451347 
L 282.864531 133.407491 
L 229.009986 117.26143 
L 175.15544 97.970505 
L 202.082713 123.442045 
L 229.009986 147.223173 
L 255.937259 165.048867 
L 282.864531 183.188974 
L 323.25544 202.140239 
L 363.646349 207.947188 
L 404.037259 225.663767 
L 444.428168 227.740283 
L 363.646349 159.481972 
L 282.864531 122.83436 
L 202.082713 116.950351 
L 121.300895 95.366801 
L 161.691804 132.999435 
L 202.082713 161.536288 
L 242.473622 186.961722 
L 282.864531 200.048767 
L 336.719077 204.851321 
L 390.573622 207.454437 
L 444.428168 226.487789 
L 498.282713 226.540048 
L 390.573622 143.648745 
L 282.864531 118.775858 
L 175.15544 116.481271 
L 67.446349 96.737859 
L 121.300895 143.085721 
L 175.15544 179.003913 
L 229.009986 199.72983 
L 282.864531 204.325651 
" clip-path="url(#pe02b7e1afc)" style="fill: none; stroke: #111827; stroke-width: 1.9; stroke-linecap: square"/>
   </g>
   <g id="line2d_30">
    <path d="M 282.864531 161.567629 
L 283.706009 163.494587 
L 284.547486 164.769674 
L 285.388963 165.689449 
L 294.645213 173.692525 
L 315.682145 192.095601 
L 329.987259 204.279281 
L 335.877599 209.090954 
L 336.719077 209.742091 
L 294.645213 171.401715 
L 284.547486 162.759594 
L 282.864531 160.682087 
L 281.181577 158.413989 
L 279.498622 156.833248 
L 274.449759 152.482244 
L 254.254304 134.645537 
L 242.473622 124.497857 
L 234.058849 117.440374 
L 229.009986 113.465515 
L 271.083849 151.796244 
L 277.815668 157.417227 
L 282.864531 161.697106 
L 286.23044 164.764625 
L 291.279304 169.389206 
L 324.938395 199.347145 
L 333.353168 206.711628 
L 336.719077 209.504069 
L 340.084986 211.865784 
L 343.450895 213.728409 
L 346.816804 215.206654 
L 350.182713 216.461174 
L 355.231577 218.108643 
L 361.963395 220.012387 
L 368.695213 221.653458 
L 372.061122 222.258316 
L 375.427031 222.544506 
L 383.841804 222.902351 
L 390.573622 223.089071 
L 360.28044 195.541107 
L 350.182713 186.636925 
L 343.450895 180.879404 
L 336.719077 175.454635 
L 329.987259 170.448039 
L 316.523622 160.903336 
L 313.157713 158.535577 
L 309.791804 156.320898 
L 306.425895 154.277049 
L 299.694077 150.562808 
L 286.23044 143.433757 
L 279.498622 140.039004 
L 269.400895 135.109262 
L 262.669077 131.485048 
L 255.937259 127.924988 
L 249.20544 124.674768 
L 245.839531 123.288088 
L 239.107713 121.271894 
L 235.741804 119.672447 
L 218.912259 110.768831 
L 212.18044 107.580493 
L 208.814531 106.218218 
L 202.082713 103.900686 
L 195.350895 102.036268 
L 188.619077 100.554373 
L 185.253168 99.961566 
L 181.887259 99.50519 
L 178.521349 99.249191 
L 175.15544 99.247282 
L 203.765668 125.230749 
L 213.863395 134.131963 
L 220.595213 139.846355 
L 225.644077 143.828226 
L 232.375895 148.82797 
L 237.424759 152.334204 
L 242.473622 155.483815 
L 250.888395 160.442792 
L 264.352031 167.831359 
L 272.766804 172.224616 
L 282.864531 177.202222 
L 290.437827 180.684397 
L 305.584418 187.135643 
L 310.633281 189.233072 
L 315.682145 191.143504 
L 320.731009 192.867634 
L 325.779872 194.406885 
L 330.828736 195.76599 
L 335.877599 196.954902 
L 338.402031 197.489809 
L 340.926463 198.16866 
L 351.02419 203.53327 
L 358.597486 207.331969 
L 368.695213 212.115524 
L 376.268509 215.46481 
L 383.841804 218.551271 
L 388.890668 220.345568 
L 391.415099 221.064997 
L 393.939531 221.591309 
L 396.463963 221.88 
L 401.512827 221.908523 
L 404.037259 221.751195 
L 409.086122 221.219995 
L 416.659418 221.183284 
L 419.183849 221.243016 
L 431.806009 221.034521 
L 441.903736 221.419918 
L 444.428168 221.54238 
L 439.379304 216.931578 
L 429.281577 208.15517 
L 414.134986 195.310549 
L 404.037259 186.974493 
L 398.988395 182.992933 
L 393.939531 179.227447 
L 388.890668 175.621668 
L 383.841804 172.16285 
L 378.79294 168.902551 
L 373.744077 165.931113 
L 368.695213 163.115183 
L 358.597486 157.818341 
L 348.499759 152.675181 
L 338.402031 147.914929 
L 328.304304 143.589444 
L 323.25544 141.610537 
L 318.206577 139.773478 
L 308.108849 136.390025 
L 292.962259 131.74429 
L 287.913395 130.409149 
L 282.864531 129.213794 
L 277.815668 128.147735 
L 267.71794 126.356724 
L 257.620213 124.942411 
L 247.522486 123.818351 
L 237.424759 122.911806 
L 222.278168 121.840329 
L 207.131577 120.873783 
L 202.082713 120.441966 
L 197.033849 118.995777 
L 186.936122 114.592591 
L 176.838395 110.167465 
L 166.740668 106.015558 
L 161.691804 104.129647 
L 156.64294 104.104431 
L 151.594077 103.892112 
L 141.496349 102.522228 
L 136.447486 103.538046 
L 131.398622 102.696065 
L 126.349759 102.040697 
L 121.300895 101.563231 
L 128.87419 108.43206 
L 144.020781 121.398079 
L 156.64294 131.961808 
L 166.740668 140.115305 
L 171.789531 143.904276 
L 179.362827 149.230716 
L 184.41169 152.505479 
L 191.984986 156.902463 
L 199.558281 161.005621 
L 212.18044 167.481879 
L 222.278168 172.401189 
L 229.851463 175.768136 
L 237.424759 178.910072 
L 244.998054 181.748191 
L 252.571349 184.3266 
L 260.144645 186.736887 
L 275.291236 191.084843 
L 282.864531 192.864951 
L 289.596349 194.230396 
L 296.328168 195.416925 
L 306.425895 196.911041 
L 316.523622 198.126818 
L 326.621349 199.127079 
L 340.084986 200.210874 
L 356.914531 201.282743 
L 380.475895 202.612798 
L 383.841804 202.893632 
L 387.207713 203.341112 
L 393.939531 205.284556 
L 407.403168 209.473323 
L 420.866804 213.955552 
L 430.964531 217.069894 
L 437.696349 218.890004 
L 441.062259 219.655767 
L 444.428168 220.282635 
L 447.794077 220.707333 
L 454.525895 221.216957 
L 471.35544 222.135964 
L 498.282713 223.355303 
L 491.550895 217.226611 
L 478.087259 205.711673 
L 464.623622 194.476163 
L 457.891804 189.03772 
L 451.159986 183.76205 
L 444.428168 178.848121 
L 437.696349 174.26322 
L 430.964531 169.934259 
L 424.232713 165.93617 
L 417.500895 162.313519 
L 410.769077 158.980451 
L 397.30544 152.676838 
L 390.573622 149.751609 
L 383.841804 146.980572 
L 377.109986 144.438599 
L 370.378168 142.142553 
L 363.646349 140.021539 
L 356.914531 138.040539 
L 350.182713 136.239473 
L 336.719077 133.048058 
L 329.987259 131.652807 
L 323.25544 130.410738 
L 316.523622 129.307231 
L 303.059986 127.396541 
L 289.596349 125.791263 
L 276.132713 124.527593 
L 262.669077 123.515187 
L 242.473622 122.317626 
L 222.278168 121.372138 
L 195.350895 120.35092 
L 154.959986 118.912037 
L 148.228168 118.538461 
L 141.496349 116.928459 
L 114.569077 108.425716 
L 107.837259 106.5593 
L 94.373622 103.430697 
L 87.641804 102.124466 
L 80.909986 101.089506 
L 74.178168 100.353231 
L 67.446349 99.836452 
L 74.178168 105.964376 
L 87.641804 117.46839 
L 101.10544 128.689251 
L 111.203168 136.784282 
L 117.934986 141.914121 
L 124.666804 146.604203 
L 131.398622 151.038102 
L 138.13044 155.057452 
L 144.862259 158.650177 
L 151.594077 162.021623 
L 165.057713 168.388168 
L 171.789531 171.411213 
L 181.887259 175.587435 
L 188.619077 178.09395 
L 195.350895 180.366714 
L 205.448622 183.497935 
L 212.18044 185.36954 
L 222.278168 187.872717 
L 232.375895 190.116307 
L 242.473622 192.019784 
L 252.571349 193.623925 
L 269.400895 195.960219 
L 279.498622 197.097471 
L 282.864531 197.434336 
L 282.864531 197.434336 
" clip-path="url(#pe02b7e1afc)" style="fill: none; stroke-dasharray: 5.18,2.24; stroke-dashoffset: 0; stroke: #d97706; stroke-width: 1.4"/>
   </g>
   <g id="line2d_31">
    <path d="M 282.864531 161.567629 
L 296.328168 180.656895 
L 309.791804 191.022656 
L 323.25544 201.016291 
L 336.719077 211.873464 
L 309.791804 182.816815 
L 282.864531 158.026648 
L 255.937259 133.456328 
L 229.009986 117.710105 
L 242.473622 130.561674 
L 255.937259 140.407941 
L 269.400895 156.676564 
L 282.864531 165.910243 
L 309.791804 186.521125 
L 336.719077 204.725602 
L 363.646349 219.211611 
L 390.573622 224.365282 
L 336.719077 191.357302 
L 309.791804 156.540423 
L 282.864531 140.339368 
L 255.937259 123.681273 
L 229.009986 114.916775 
L 195.350895 101.047757 
L 175.15544 98.320745 
L 187.777599 109.940296 
L 202.082713 121.682331 
L 219.964105 139.133982 
L 229.009986 145.231907 
L 240.317337 152.577588 
L 263.017706 166.41198 
L 294.147954 185.214201 
L 308.252232 194.381969 
L 323.25544 202.402752 
L 342.009451 208.676401 
L 363.646349 220.306993 
L 385.283248 224.120311 
L 404.037259 226.615148 
L 444.428168 231.651885 
L 402.057178 210.880117 
L 382.851764 179.840699 
L 363.646349 166.748104 
L 344.440935 154.129288 
L 325.23552 142.319644 
L 306.030106 131.300727 
L 282.864531 123.409754 
L 253.907563 116.761911 
L 217.711352 107.864792 
L 202.082713 102.342664 
L 182.546914 99.72436 
L 158.127165 96.614435 
L 121.300895 92.227798 
L 136.316389 105.640667 
L 144.008752 111.393796 
L 153.624207 122.987227 
L 161.691804 129.023816 
L 202.082713 156.46392 
L 216.091499 165.706279 
L 229.438284 174.215169 
L 242.473622 182.195344 
L 253.067571 188.421707 
L 260.424479 192.449664 
L 269.620615 196.548598 
L 282.864531 200.113673 
L 293.97636 202.351272 
L 306.784564 204.81956 
L 315.67915 207.485158 
L 326.797382 209.930375 
L 336.719077 214.525381 
L 349.121195 218.550132 
L 364.623843 221.001315 
L 398.78796 225.495117 
L 421.890784 228.350307 
L 444.428168 230.997347 
L 462.691857 232.187352 
L 498.282713 233.955082 
L 480.648109 219.265839 
L 463.013505 201.158501 
L 390.573622 152.874719 
L 377.175161 144.277016 
L 360.427084 134.463004 
L 339.491988 127.079125 
L 313.323118 121.797095 
L 282.864531 116.006234 
L 244.791298 110.120585 
L 197.199755 104.714808 
L 175.15544 101.725437 
L 147.600046 98.332435 
L 113.155804 94.351509 
L 67.446349 89.816212 
L 81.060541 101.717126 
L 86.122934 104.563101 
L 92.450925 113.19419 
L 100.360913 120.885389 
L 135.116515 143.943537 
L 152.38604 155.448569 
L 180.790764 174.111423 
L 191.797255 181.048725 
L 197.435826 184.443508 
L 204.48404 188.459407 
L 213.294307 192.648689 
L 224.307142 196.021065 
L 234.888541 198.292128 
L 262.903529 203.800354 
L 282.864531 207.510373 
L 282.864531 207.510373 
" clip-path="url(#pe02b7e1afc)" style="fill: none; stroke-dasharray: 7.68,1.92,1.2,1.92; stroke-dashoffset: 0; stroke: #2563eb; stroke-width: 1.2"/>
   </g>
   <g id="line2d_32">
    <path d="M 282.864531 161.567629 
L 309.791804 231.494622 
L 336.719077 287.833309 
L 282.864531 161.567629 
L 229.009986 35.301949 
L 255.937259 91.640637 
L 282.864531 161.567629 
" clip-path="url(#pe02b7e1afc)" style="fill: none; stroke: #7c3aed; stroke-width: 1.25; stroke-linecap: square"/>
   </g>
   <g id="line2d_33">
    <path d="M 282.864531 161.567629 
L 287.35241 173.782834 
L 288.47438 176.318268 
L 289.596349 178.427043 
L 292.962259 183.435764 
L 295.206198 186.341738 
L 300.816046 192.718779 
L 305.303925 197.584982 
L 312.035743 204.466629 
L 322.133471 214.510289 
L 334.475137 226.357786 
L 336.719077 227.944069 
L 332.231198 223.688487 
L 329.987259 221.762449 
L 318.767562 210.880302 
L 307.547865 199.577647 
L 303.059986 194.834649 
L 296.328168 187.309352 
L 294.084228 184.565805 
L 291.840289 181.427291 
L 289.596349 177.981048 
L 287.35241 173.328926 
L 285.108471 167.560823 
L 278.376652 149.153533 
L 276.132713 144.533231 
L 273.888774 141.156445 
L 271.644834 138.058164 
L 267.156956 132.815515 
L 262.669077 127.830496 
L 258.181198 123.111899 
L 246.961501 111.820002 
L 237.985743 103.088816 
L 231.253925 96.658949 
L 229.009986 95.051801 
L 231.253925 97.094794 
L 233.497865 99.219616 
L 235.741804 100.943878 
L 246.961501 111.82061 
L 257.059228 121.969641 
L 262.669077 127.831221 
L 268.278925 134.085593 
L 271.644834 138.057256 
L 273.888774 141.157502 
L 276.132713 144.5344 
L 277.254683 146.625126 
L 278.376652 149.154869 
L 280.620592 155.136618 
L 285.108471 167.562917 
L 287.35241 173.3335 
L 289.596349 177.985061 
L 291.840289 181.430278 
L 294.084228 184.568682 
L 296.328168 187.311738 
L 303.059986 194.837108 
L 307.547865 199.579978 
L 318.767562 210.881993 
L 327.743319 219.610105 
L 332.231198 223.884471 
L 336.719077 227.735222 
L 338.963016 229.322893 
L 341.206956 230.684023 
L 347.938774 234.226732 
L 352.426652 236.053752 
L 359.158471 238.811885 
L 372.622107 242.974981 
L 374.866046 243.495925 
L 377.109986 244.179918 
L 377.109986 244.179918 
" clip-path="url(#pe02b7e1afc)" style="fill: none; stroke-dasharray: 8.5,3.4; stroke-dashoffset: 0; stroke: #0d9488; stroke-width: 1.7"/>
   </g>
   <g id="line2d_34">
    <path d="M 282.864531 161.567629 
L 286.23044 170.917084 
L 289.596349 178.443766 
L 292.962259 183.456025 
L 296.328168 187.655161 
L 303.059986 195.122371 
L 309.791804 201.978153 
L 319.889531 211.728451 
L 329.987259 220.935776 
L 333.353168 223.903734 
L 336.719077 226.120705 
L 329.987259 220.611418 
L 323.25544 214.513927 
L 316.523622 208.181192 
L 309.791804 201.624427 
L 303.059986 194.741623 
L 296.328168 187.290384 
L 289.596349 177.955042 
L 276.132713 144.501303 
L 269.400895 135.347196 
L 262.669077 127.891692 
L 255.937259 121.040839 
L 249.20544 114.490754 
L 242.473622 108.172634 
L 235.741804 102.080195 
L 229.009986 96.828319 
L 232.375895 99.675618 
L 235.741804 102.359922 
L 245.839531 111.581267 
L 255.937259 121.347831 
L 262.669077 128.230416 
L 269.400895 135.663525 
L 272.766804 139.897138 
L 276.132713 144.901016 
L 279.498622 152.296989 
L 282.864531 161.540288 
L 289.596349 178.147918 
L 296.328168 187.405838 
L 303.059986 194.849818 
L 309.791804 201.728646 
L 316.523622 208.285594 
L 323.25544 214.61602 
L 329.987259 220.705642 
L 336.719077 226.137348 
L 343.450895 229.587751 
L 350.182713 232.131752 
L 356.914531 234.172674 
L 363.646349 239.060492 
L 370.378168 238.074183 
L 377.109986 233.775133 
L 383.841804 236.520051 
L 390.573622 242.28947 
L 377.109986 210.178001 
L 363.646349 217.429587 
L 350.182713 207.559782 
L 336.719077 195.266029 
L 323.25544 180.960702 
L 309.791804 163.35617 
L 296.328168 146.03082 
L 282.864531 137.281129 
L 269.400895 129.992181 
L 255.937259 116.591831 
L 242.473622 104.063491 
L 229.009986 94.958888 
L 215.546349 89.126587 
L 202.082713 82.389802 
L 188.619077 76.845664 
L 175.15544 74.015401 
L 181.887259 97.448318 
L 188.619077 95.999677 
L 195.350895 85.549843 
L 202.082713 94.925236 
L 208.814531 108.680828 
L 215.546349 113.734878 
L 222.278168 119.769578 
L 229.009986 126.099082 
L 235.741804 132.869778 
L 242.473622 140.206158 
L 249.20544 148.752015 
L 255.937259 157.816936 
L 262.669077 166.016243 
L 269.400895 172.392342 
L 276.132713 178.269859 
L 282.864531 182.065434 
L 292.962259 186.854745 
L 303.059986 191.457168 
L 313.157713 201.576887 
L 323.25544 211.117192 
L 333.353168 219.968736 
L 343.450895 226.731769 
L 353.548622 231.451878 
L 363.646349 246.856529 
L 373.744077 251.392896 
L 383.841804 243.942256 
L 393.939531 236.266039 
L 404.037259 236.769406 
L 414.134986 229.916727 
L 424.232713 227.002291 
L 434.33044 228.966879 
L 444.428168 228.453873 
L 424.232713 240.629697 
L 404.037259 295.725711 
L 383.841804 222.616267 
L 363.646349 183.239064 
L 343.450895 158.539612 
L 323.25544 141.951737 
L 303.059986 135.345701 
L 282.864531 130.174466 
L 262.669077 122.157781 
L 242.473622 110.997427 
L 222.278168 100.032386 
L 202.082713 91.219764 
L 181.887259 101.071446 
L 161.691804 84.473968 
L 141.496349 87.538672 
L 121.300895 120.838718 
L 131.398622 81.78349 
L 141.496349 130.108474 
L 151.594077 97.68655 
L 161.691804 104.612293 
L 171.789531 110.160165 
L 181.887259 114.266781 
L 191.984986 132.942545 
L 202.082713 143.678708 
L 222.278168 169.463066 
L 232.375895 178.216368 
L 242.473622 182.651744 
L 252.571349 185.658396 
L 262.669077 187.940034 
L 272.766804 190.023153 
L 282.864531 192.788353 
L 296.328168 198.130375 
L 309.791804 201.509793 
L 323.25544 210.058153 
L 336.719077 217.507845 
L 350.182713 224.36011 
L 363.646349 229.920272 
L 377.109986 231.14937 
L 390.573622 210.802804 
L 404.037259 239.523448 
L 417.500895 242.708946 
L 430.964531 245.052244 
L 444.428168 237.097391 
L 457.891804 174.008069 
L 471.35544 173.109695 
L 484.819077 211.709236 
L 498.282713 304.574676 
L 471.35544 195.158989 
L 444.428168 164.448755 
L 417.500895 137.66401 
L 390.573622 152.201986 
L 363.646349 138.680211 
L 336.719077 130.826951 
L 309.791804 125.641777 
L 282.864531 123.365782 
L 255.937259 117.315762 
L 229.009986 102.14967 
L 202.082713 91.997132 
L 175.15544 104.648613 
L 148.228168 92.579534 
L 121.300895 143.326028 
L 94.373622 148.334243 
L 67.446349 61.359338 
L 80.909986 57.712467 
L 94.373622 51.017244 
L 107.837259 93.699191 
L 121.300895 83.320956 
L 134.764531 103.63999 
L 148.228168 137.207972 
L 161.691804 154.472655 
L 175.15544 171.091188 
L 188.619077 178.657492 
L 202.082713 184.475075 
L 215.546349 188.679444 
L 229.009986 191.782804 
L 242.473622 194.532776 
L 255.937259 197.143989 
L 269.400895 198.612421 
L 282.864531 199.582107 
L 282.864531 199.582107 
" clip-path="url(#pe02b7e1afc)" style="fill: none; stroke: #dc2626; stroke-width: 1.7; stroke-linecap: square"/>
   </g>
   <g id="line2d_35">
    <path d="M 45.904531 161.567629 
L 519.824531 161.567629 
" clip-path="url(#pe02b7e1afc)" style="fill: none; stroke: #9ca3af; stroke-width: 0.8; stroke-linecap: square"/>
   </g>
   <g id="line2d_36">
    <path d="M 282.864531 318.038312 
L 282.864531 21.838312 
" clip-path="url(#pe02b7e1afc)" style="fill: none; stroke: #9ca3af; stroke-width: 0.8; stroke-linecap: square"/>
   </g>
   <g id="patch_3">
    <path d="M 45.904531 318.038312 
L 45.904531 21.838312 
" style="fill: none; stroke: #000000; stroke-width: 0.8; stroke-linejoin: miter; stroke-linecap: square"/>
   </g>
   <g id="patch_4">
    <path d="M 519.824531 318.038312 
L 519.824531 21.838312 
" style="fill: none; stroke: #000000; stroke-width: 0.8; stroke-linejoin: miter; stroke-linecap: square"/>
   </g>
   <g id="patch_5">
    <path d="M 45.904531 318.038312 
L 519.824531 318.038312 
" style="fill: none; stroke: #000000; stroke-width: 0.8; stroke-linejoin: miter; stroke-linecap: square"/>
   </g>
   <g id="patch_6">
    <path d="M 45.904531 21.838312 
L 519.824531 21.838312 
" style="fill: none; stroke: #000000; stroke-width: 0.8; stroke-linejoin: miter; stroke-linecap: square"/>
   </g>
   <g id="text_17">
    <!-- Histéresis cíclica de la columna: referencia estructural, OpenSees y modelos locales -->
    <g transform="translate(51.421375 15.838312) scale(0.108 -0.108)">
     <defs>
      <path id="DejaVuSerif-48" d="M 353 0 
L 353 331 
L 947 331 
L 947 4331 
L 353 4331 
L 353 4666 
L 2175 4666 
L 2175 4331 
L 1581 4331 
L 1581 2719 
L 4000 2719 
L 4000 4331 
L 3406 4331 
L 3406 4666 
L 5228 4666 
L 5228 4331 
L 4634 4331 
L 4634 331 
L 5228 331 
L 5228 0 
L 3406 0 
L 3406 331 
L 4000 331 
L 4000 2338 
L 1581 2338 
L 1581 331 
L 2175 331 
L 2175 0 
L 353 0 
z
" transform="scale(0.015625)"/>
      <path id="DejaVuSerif-e9" d="M 3469 1600 
L 991 1600 
L 991 1575 
Q 991 903 1244 561 
Q 1497 219 1991 219 
Q 2369 219 2611 417 
Q 2853 616 2950 1006 
L 3413 1006 
Q 3275 459 2904 184 
Q 2534 -91 1931 -91 
Q 1203 -91 761 389 
Q 319 869 319 1663 
Q 319 2450 753 2931 
Q 1188 3413 1894 3413 
Q 2647 3413 3050 2948 
Q 3453 2484 3469 1600 
z
M 2791 1931 
Q 2772 2513 2545 2808 
Q 2319 3103 1894 3103 
Q 1497 3103 1269 2806 
Q 1041 2509 991 1931 
L 2791 1931 
z
M 2330 5119 
L 2952 5119 
L 1890 3944 
L 1524 3944 
L 2330 5119 
z
" transform="scale(0.015625)"/>
      <path id="DejaVuSerif-63" d="M 3291 997 
Q 3169 466 2822 187 
Q 2475 -91 1925 -91 
Q 1200 -91 759 389 
Q 319 869 319 1663 
Q 319 2459 759 2936 
Q 1200 3413 1925 3413 
Q 2241 3413 2553 3339 
Q 2866 3266 3181 3116 
L 3181 2266 
L 2847 2266 
Q 2781 2703 2561 2903 
Q 2341 3103 1931 3103 
Q 1466 3103 1228 2742 
Q 991 2381 991 1663 
Q 991 944 1227 581 
Q 1463 219 1931 219 
Q 2303 219 2525 412 
Q 2747 606 2828 997 
L 3291 997 
z
" transform="scale(0.015625)"/>
      <path id="DejaVuSerif-ed" d="M 1356 331 
L 1900 331 
L 1900 0 
L 231 0 
L 231 331 
L 781 331 
L 781 2988 
L 231 2988 
L 231 3322 
L 1356 3322 
L 1356 331 
z
M 1458 5119 
L 2080 5119 
L 1018 3944 
L 652 3944 
L 1458 5119 
z
" transform="scale(0.015625)"/>
      <path id="DejaVuSerif-64" d="M 3359 331 
L 3909 331 
L 3909 0 
L 2784 0 
L 2784 519 
Q 2616 206 2355 57 
Q 2094 -91 1709 -91 
Q 1097 -91 708 395 
Q 319 881 319 1663 
Q 319 2444 706 2928 
Q 1094 3413 1709 3413 
Q 2094 3413 2355 3264 
Q 2616 3116 2784 2803 
L 2784 4531 
L 2241 4531 
L 2241 4863 
L 3359 4863 
L 3359 331 
z
M 2784 1497 
L 2784 1825 
Q 2784 2422 2554 2737 
Q 2325 3053 1888 3053 
Q 1444 3053 1217 2703 
Q 991 2353 991 1663 
Q 991 975 1217 622 
Q 1444 269 1888 269 
Q 2325 269 2554 583 
Q 2784 897 2784 1497 
z
" transform="scale(0.015625)"/>
      <path id="DejaVuSerif-75" d="M 2266 3322 
L 3341 3322 
L 3341 331 
L 3884 331 
L 3884 0 
L 2766 0 
L 2766 588 
Q 2606 256 2353 82 
Q 2100 -91 1766 -91 
Q 1213 -91 952 223 
Q 691 538 691 1209 
L 691 2988 
L 172 2988 
L 172 3322 
L 1269 3322 
L 1269 1388 
Q 1269 781 1417 556 
Q 1566 331 1947 331 
Q 2347 331 2556 625 
Q 2766 919 2766 1478 
L 2766 2988 
L 2266 2988 
L 2266 3322 
z
" transform="scale(0.015625)"/>
      <path id="DejaVuSerif-3a" d="M 666 325 
Q 666 500 786 622 
Q 906 744 1081 744 
Q 1256 744 1376 622 
Q 1497 500 1497 325 
Q 1497 150 1378 29 
Q 1259 -91 1081 -91 
Q 903 -91 784 29 
Q 666 150 666 325 
z
M 666 2363 
Q 666 2538 786 2658 
Q 906 2778 1081 2778 
Q 1259 2778 1378 2659 
Q 1497 2541 1497 2363 
Q 1497 2184 1378 2065 
Q 1259 1947 1081 1947 
Q 906 1947 786 2067 
Q 666 2188 666 2363 
z
" transform="scale(0.015625)"/>
      <path id="DejaVuSerif-66" d="M 2753 4078 
L 2450 4078 
Q 2447 4313 2317 4434 
Q 2188 4556 1941 4556 
Q 1619 4556 1487 4379 
Q 1356 4203 1356 3750 
L 1356 3322 
L 2284 3322 
L 2284 2988 
L 1356 2988 
L 1356 331 
L 2094 331 
L 2094 0 
L 231 0 
L 231 331 
L 781 331 
L 781 2988 
L 231 2988 
L 231 3322 
L 781 3322 
L 781 3738 
Q 781 4294 1070 4578 
Q 1359 4863 1919 4863 
Q 2128 4863 2337 4825 
Q 2547 4788 2753 4709 
L 2753 4078 
z
" transform="scale(0.015625)"/>
      <path id="DejaVuSerif-2c" d="M 231 -622 
Q 525 -406 662 -114 
Q 800 178 800 594 
L 800 709 
L 1416 709 
Q 1391 175 1164 -208 
Q 938 -591 481 -872 
L 231 -622 
z
" transform="scale(0.015625)"/>
      <path id="DejaVuSerif-4f" d="M 2625 244 
Q 3391 244 3781 770 
Q 4172 1297 4172 2328 
Q 4172 3363 3781 3889 
Q 3391 4416 2625 4416 
Q 1856 4416 1465 3889 
Q 1075 3363 1075 2328 
Q 1075 1297 1465 770 
Q 1856 244 2625 244 
z
M 2625 -91 
Q 2150 -91 1751 65 
Q 1353 222 1050 525 
Q 700 875 529 1319 
Q 359 1763 359 2328 
Q 359 2894 529 3339 
Q 700 3784 1050 4134 
Q 1356 4441 1750 4595 
Q 2144 4750 2625 4750 
Q 3641 4750 4266 4084 
Q 4891 3419 4891 2328 
Q 4891 1769 4719 1320 
Q 4547 872 4197 525 
Q 3891 219 3497 64 
Q 3103 -91 2625 -91 
z
" transform="scale(0.015625)"/>
      <path id="DejaVuSerif-53" d="M 594 225 
L 594 1288 
L 953 1284 
Q 969 753 1261 498 
Q 1553 244 2150 244 
Q 2706 244 2998 464 
Q 3291 684 3291 1106 
Q 3291 1444 3114 1625 
Q 2938 1806 2369 1978 
L 1753 2163 
Q 1084 2366 811 2669 
Q 538 2972 538 3500 
Q 538 4094 959 4422 
Q 1381 4750 2144 4750 
Q 2469 4750 2856 4679 
Q 3244 4609 3681 4475 
L 3681 3481 
L 3328 3481 
Q 3275 3975 2998 4195 
Q 2722 4416 2156 4416 
Q 1663 4416 1405 4214 
Q 1147 4013 1147 3628 
Q 1147 3294 1340 3103 
Q 1534 2913 2163 2725 
L 2741 2553 
Q 3375 2363 3645 2067 
Q 3916 1772 3916 1275 
Q 3916 597 3481 253 
Q 3047 -91 2188 -91 
Q 1803 -91 1404 -12 
Q 1006 66 594 225 
z
" transform="scale(0.015625)"/>
      <path id="DejaVuSerif-79" d="M 1381 -609 
L 1600 -56 
L 359 2988 
L -19 2988 
L -19 3322 
L 1509 3322 
L 1509 2988 
L 978 2988 
L 1913 703 
L 2847 2988 
L 2350 2988 
L 2350 3322 
L 3597 3322 
L 3597 2988 
L 3225 2988 
L 1703 -750 
Q 1547 -1138 1356 -1280 
Q 1166 -1422 819 -1422 
Q 672 -1422 517 -1397 
Q 363 -1372 206 -1325 
L 206 -691 
L 500 -691 
Q 519 -903 608 -995 
Q 697 -1088 884 -1088 
Q 1056 -1088 1161 -992 
Q 1266 -897 1381 -609 
z
" transform="scale(0.015625)"/>
     </defs>
     <use xlink:href="#DejaVuSerif-48"/>
     <use xlink:href="#DejaVuSerif-69" transform="translate(87.207031 0)"/>
     <use xlink:href="#DejaVuSerif-73" transform="translate(119.189453 0)"/>
     <use xlink:href="#DejaVuSerif-74" transform="translate(170.507812 0)"/>
     <use xlink:href="#DejaVuSerif-e9" transform="translate(210.693359 0)"/>
     <use xlink:href="#DejaVuSerif-72" transform="translate(269.873047 0)"/>
     <use xlink:href="#DejaVuSerif-65" transform="translate(317.675781 0)"/>
     <use xlink:href="#DejaVuSerif-73" transform="translate(376.855469 0)"/>
     <use xlink:href="#DejaVuSerif-69" transform="translate(428.173828 0)"/>
     <use xlink:href="#DejaVuSerif-73" transform="translate(460.15625 0)"/>
     <use xlink:href="#DejaVuSerif-20" transform="translate(511.474609 0)"/>
     <use xlink:href="#DejaVuSerif-63" transform="translate(543.261719 0)"/>
     <use xlink:href="#DejaVuSerif-ed" transform="translate(599.267578 0)"/>
     <use xlink:href="#DejaVuSerif-63" transform="translate(631.25 0)"/>
     <use xlink:href="#DejaVuSerif-6c" transform="translate(687.255859 0)"/>
     <use xlink:href="#DejaVuSerif-69" transform="translate(719.238281 0)"/>
     <use xlink:href="#DejaVuSerif-63" transform="translate(751.220703 0)"/>
     <use xlink:href="#DejaVuSerif-61" transform="translate(807.226562 0)"/>
     <use xlink:href="#DejaVuSerif-20" transform="translate(866.845703 0)"/>
     <use xlink:href="#DejaVuSerif-64" transform="translate(898.632812 0)"/>
     <use xlink:href="#DejaVuSerif-65" transform="translate(962.646484 0)"/>
     <use xlink:href="#DejaVuSerif-20" transform="translate(1021.826172 0)"/>
     <use xlink:href="#DejaVuSerif-6c" transform="translate(1053.613281 0)"/>
     <use xlink:href="#DejaVuSerif-61" transform="translate(1085.595703 0)"/>
     <use xlink:href="#DejaVuSerif-20" transform="translate(1145.214844 0)"/>
     <use xlink:href="#DejaVuSerif-63" transform="translate(1177.001953 0)"/>
     <use xlink:href="#DejaVuSerif-6f" transform="translate(1233.007812 0)"/>
     <use xlink:href="#DejaVuSerif-6c" transform="translate(1293.212891 0)"/>
     <use xlink:href="#DejaVuSerif-75" transform="translate(1325.195312 0)"/>
     <use xlink:href="#DejaVuSerif-6d" transform="translate(1389.599609 0)"/>
     <use xlink:href="#DejaVuSerif-6e" transform="translate(1484.423828 0)"/>
     <use xlink:href="#DejaVuSerif-61" transform="translate(1548.828125 0)"/>
     <use xlink:href="#DejaVuSerif-3a" transform="translate(1608.447266 0)"/>
     <use xlink:href="#DejaVuSerif-20" transform="translate(1642.138672 0)"/>
     <use xlink:href="#DejaVuSerif-72" transform="translate(1673.925781 0)"/>
     <use xlink:href="#DejaVuSerif-65" transform="translate(1721.728516 0)"/>
     <use xlink:href="#DejaVuSerif-66" transform="translate(1780.908203 0)"/>
     <use xlink:href="#DejaVuSerif-65" transform="translate(1817.919922 0)"/>
     <use xlink:href="#DejaVuSerif-72" transform="translate(1877.099609 0)"/>
     <use xlink:href="#DejaVuSerif-65" transform="translate(1924.902344 0)"/>
     <use xlink:href="#DejaVuSerif-6e" transform="translate(1984.082031 0)"/>
     <use xlink:href="#DejaVuSerif-63" transform="translate(2048.486328 0)"/>
     <use xlink:href="#DejaVuSerif-69" transform="translate(2104.492188 0)"/>
     <use xlink:href="#DejaVuSerif-61" transform="translate(2136.474609 0)"/>
     <use xlink:href="#DejaVuSerif-20" transform="translate(2196.09375 0)"/>
     <use xlink:href="#DejaVuSerif-65" transform="translate(2227.880859 0)"/>
     <use xlink:href="#DejaVuSerif-73" transform="translate(2287.060547 0)"/>
     <use xlink:href="#DejaVuSerif-74" transform="translate(2338.378906 0)"/>
     <use xlink:href="#DejaVuSerif-72" transform="translate(2378.564453 0)"/>
     <use xlink:href="#DejaVuSerif-75" transform="translate(2426.367188 0)"/>
     <use xlink:href="#DejaVuSerif-63" transform="translate(2490.771484 0)"/>
     <use xlink:href="#DejaVuSerif-74" transform="translate(2546.777344 0)"/>
     <use xlink:href="#DejaVuSerif-75" transform="translate(2586.962891 0)"/>
     <use xlink:href="#DejaVuSerif-72" transform="translate(2651.367188 0)"/>
     <use xlink:href="#DejaVuSerif-61" transform="translate(2699.169922 0)"/>
     <use xlink:href="#DejaVuSerif-6c" transform="translate(2758.789062 0)"/>
     <use xlink:href="#DejaVuSerif-2c" transform="translate(2790.771484 0)"/>
     <use xlink:href="#DejaVuSerif-20" transform="translate(2822.558594 0)"/>
     <use xlink:href="#DejaVuSerif-4f" transform="translate(2854.345703 0)"/>
     <use xlink:href="#DejaVuSerif-70" transform="translate(2936.328125 0)"/>
     <use xlink:href="#DejaVuSerif-65" transform="translate(3000.341797 0)"/>
     <use xlink:href="#DejaVuSerif-6e" transform="translate(3059.521484 0)"/>
     <use xlink:href="#DejaVuSerif-53" transform="translate(3123.925781 0)"/>
     <use xlink:href="#DejaVuSerif-65" transform="translate(3192.431641 0)"/>
     <use xlink:href="#DejaVuSerif-65" transform="translate(3251.611328 0)"/>
     <use xlink:href="#DejaVuSerif-73" transform="translate(3310.791016 0)"/>
     <use xlink:href="#DejaVuSerif-20" transform="translate(3362.109375 0)"/>
     <use xlink:href="#DejaVuSerif-79" transform="translate(3393.896484 0)"/>
     <use xlink:href="#DejaVuSerif-20" transform="translate(3450.390625 0)"/>
     <use xlink:href="#DejaVuSerif-6d" transform="translate(3482.177734 0)"/>
     <use xlink:href="#DejaVuSerif-6f" transform="translate(3577.001953 0)"/>
     <use xlink:href="#DejaVuSerif-64" transform="translate(3637.207031 0)"/>
     <use xlink:href="#DejaVuSerif-65" transform="translate(3701.220703 0)"/>
     <use xlink:href="#DejaVuSerif-6c" transform="translate(3760.400391 0)"/>
     <use xlink:href="#DejaVuSerif-6f" transform="translate(3792.382812 0)"/>
     <use xlink:href="#DejaVuSerif-73" transform="translate(3852.587891 0)"/>
     <use xlink:href="#DejaVuSerif-20" transform="translate(3903.90625 0)"/>
     <use xlink:href="#DejaVuSerif-6c" transform="translate(3935.693359 0)"/>
     <use xlink:href="#DejaVuSerif-6f" transform="translate(3967.675781 0)"/>
     <use xlink:href="#DejaVuSerif-63" transform="translate(4027.880859 0)"/>
     <use xlink:href="#DejaVuSerif-61" transform="translate(4083.886719 0)"/>
     <use xlink:href="#DejaVuSerif-6c" transform="translate(4143.505859 0)"/>
     <use xlink:href="#DejaVuSerif-65" transform="translate(4175.488281 0)"/>
     <use xlink:href="#DejaVuSerif-73" transform="translate(4234.667969 0)"/>
    </g>
   </g>
   <g id="legend_1">
    <g id="patch_7">
     <path d="M 280.927031 99.292062 
L 514.224531 99.292062 
Q 515.824531 99.292062 515.824531 97.692062 
L 515.824531 27.438312 
Q 515.824531 25.838312 514.224531 25.838312 
L 280.927031 25.838312 
Q 279.327031 25.838312 279.327031 27.438312 
L 279.327031 97.692062 
Q 279.327031 99.292062 280.927031 99.292062 
z
" style="fill: #ffffff; opacity: 0.8; stroke: #cccccc; stroke-linejoin: miter"/>
    </g>
    <g id="line2d_37">
     <path d="M 282.527031 32.318312 
L 290.527031 32.318312 
L 298.527031 32.318312 
" style="fill: none; stroke: #111827; stroke-width: 1.9; stroke-linecap: square"/>
    </g>
    <g id="text_18">
     <!-- Referencia fall_n Timoshenko $N{=}10$ Lobatto -->
     <g transform="translate(304.927031 35.118312) scale(0.08 -0.08)">
      <defs>
       <path id="DejaVuSerif-52" d="M 3066 2316 
Q 3284 2256 3442 2114 
Q 3600 1972 3725 1716 
L 4403 331 
L 4972 331 
L 4972 0 
L 3872 0 
L 3144 1484 
Q 2934 1916 2759 2042 
Q 2584 2169 2278 2169 
L 1581 2169 
L 1581 331 
L 2241 331 
L 2241 0 
L 353 0 
L 353 331 
L 947 331 
L 947 4331 
L 353 4331 
L 353 4666 
L 2719 4666 
Q 3400 4666 3770 4341 
Q 4141 4016 4141 3419 
Q 4141 2938 3870 2661 
Q 3600 2384 3066 2316 
z
M 1581 2503 
L 2503 2503 
Q 2975 2503 3200 2726 
Q 3425 2950 3425 3419 
Q 3425 3888 3200 4109 
Q 2975 4331 2503 4331 
L 1581 4331 
L 1581 2503 
z
" transform="scale(0.015625)"/>
       <path id="DejaVuSerif-5f" d="M 3200 -1259 
L 3200 -1509 
L 0 -1509 
L 0 -1259 
L 3200 -1259 
z
" transform="scale(0.015625)"/>
       <path id="DejaVuSerif-54" d="M 1222 0 
L 1222 331 
L 1819 331 
L 1819 4294 
L 447 4294 
L 447 3566 
L 63 3566 
L 63 4666 
L 4206 4666 
L 4206 3566 
L 3822 3566 
L 3822 4294 
L 2450 4294 
L 2450 331 
L 3047 331 
L 3047 0 
L 1222 0 
z
" transform="scale(0.015625)"/>
       <path id="DejaVuSerif-68" d="M 263 0 
L 263 331 
L 781 331 
L 781 4531 
L 231 4531 
L 231 4863 
L 1356 4863 
L 1356 2731 
Q 1516 3069 1770 3241 
Q 2025 3413 2363 3413 
Q 2913 3413 3172 3097 
Q 3431 2781 3431 2113 
L 3431 331 
L 3944 331 
L 3944 0 
L 2356 0 
L 2356 331 
L 2853 331 
L 2853 1931 
Q 2853 2541 2704 2764 
Q 2556 2988 2175 2988 
Q 1775 2988 1565 2697 
Q 1356 2406 1356 1850 
L 1356 331 
L 1856 331 
L 1856 0 
L 263 0 
z
" transform="scale(0.015625)"/>
       <path id="DejaVuSans-Oblique-4e" d="M 1081 4666 
L 1931 4666 
L 3219 666 
L 4000 4666 
L 4616 4666 
L 3706 0 
L 2853 0 
L 1569 4025 
L 788 0 
L 172 0 
L 1081 4666 
z
" transform="scale(0.015625)"/>
       <path id="DejaVuSans-3d" d="M 678 2906 
L 4684 2906 
L 4684 2381 
L 678 2381 
L 678 2906 
z
M 678 1631 
L 4684 1631 
L 4684 1100 
L 678 1100 
L 678 1631 
z
" transform="scale(0.015625)"/>
       <path id="DejaVuSans-31" d="M 794 531 
L 1825 531 
L 1825 4091 
L 703 3866 
L 703 4441 
L 1819 4666 
L 2450 4666 
L 2450 531 
L 3481 531 
L 3481 0 
L 794 0 
L 794 531 
z
" transform="scale(0.015625)"/>
       <path id="DejaVuSans-30" d="M 2034 4250 
Q 1547 4250 1301 3770 
Q 1056 3291 1056 2328 
Q 1056 1369 1301 889 
Q 1547 409 2034 409 
Q 2525 409 2770 889 
Q 3016 1369 3016 2328 
Q 3016 3291 2770 3770 
Q 2525 4250 2034 4250 
z
M 2034 4750 
Q 2819 4750 3233 4129 
Q 3647 3509 3647 2328 
Q 3647 1150 3233 529 
Q 2819 -91 2034 -91 
Q 1250 -91 836 529 
Q 422 1150 422 2328 
Q 422 3509 836 4129 
Q 1250 4750 2034 4750 
z
" transform="scale(0.015625)"/>
       <path id="DejaVuSerif-4c" d="M 353 0 
L 353 331 
L 947 331 
L 947 4331 
L 353 4331 
L 353 4666 
L 2175 4666 
L 2175 4331 
L 1581 4331 
L 1581 384 
L 3713 384 
L 3713 1166 
L 4097 1166 
L 4097 0 
L 353 0 
z
" transform="scale(0.015625)"/>
      </defs>
      <use xlink:href="#DejaVuSerif-52" transform="translate(0 0.015625)"/>
      <use xlink:href="#DejaVuSerif-65" transform="translate(75.292969 0.015625)"/>
      <use xlink:href="#DejaVuSerif-66" transform="translate(134.472656 0.015625)"/>
      <use xlink:href="#DejaVuSerif-65" transform="translate(171.484375 0.015625)"/>
      <use xlink:href="#DejaVuSerif-72" transform="translate(230.664062 0.015625)"/>
      <use xlink:href="#DejaVuSerif-65" transform="translate(278.466797 0.015625)"/>
      <use xlink:href="#DejaVuSerif-6e" transform="translate(337.646484 0.015625)"/>
      <use xlink:href="#DejaVuSerif-63" transform="translate(402.050781 0.015625)"/>
      <use xlink:href="#DejaVuSerif-69" transform="translate(458.056641 0.015625)"/>
      <use xlink:href="#DejaVuSerif-61" transform="translate(490.039062 0.015625)"/>
      <use xlink:href="#DejaVuSerif-20" transform="translate(549.658203 0.015625)"/>
      <use xlink:href="#DejaVuSerif-66" transform="translate(581.445312 0.015625)"/>
      <use xlink:href="#DejaVuSerif-61" transform="translate(618.457031 0.015625)"/>
      <use xlink:href="#DejaVuSerif-6c" transform="translate(678.076172 0.015625)"/>
      <use xlink:href="#DejaVuSerif-6c" transform="translate(710.058594 0.015625)"/>
      <use xlink:href="#DejaVuSerif-5f" transform="translate(742.041016 0.015625)"/>
      <use xlink:href="#DejaVuSerif-6e" transform="translate(792.041016 0.015625)"/>
      <use xlink:href="#DejaVuSerif-20" transform="translate(856.445312 0.015625)"/>
      <use xlink:href="#DejaVuSerif-54" transform="translate(888.232422 0.015625)"/>
      <use xlink:href="#DejaVuSerif-69" transform="translate(954.931641 0.015625)"/>
      <use xlink:href="#DejaVuSerif-6d" transform="translate(986.914062 0.015625)"/>
      <use xlink:href="#DejaVuSerif-6f" transform="translate(1081.738281 0.015625)"/>
      <use xlink:href="#DejaVuSerif-73" transform="translate(1141.943359 0.015625)"/>
      <use xlink:href="#DejaVuSerif-68" transform="translate(1193.261719 0.015625)"/>
      <use xlink:href="#DejaVuSerif-65" transform="translate(1257.666016 0.015625)"/>
      <use xlink:href="#DejaVuSerif-6e" transform="translate(1316.845703 0.015625)"/>
      <use xlink:href="#DejaVuSerif-6b" transform="translate(1381.25 0.015625)"/>
      <use xlink:href="#DejaVuSerif-6f" transform="translate(1441.845703 0.015625)"/>
      <use xlink:href="#DejaVuSerif-20" transform="translate(1502.050781 0.015625)"/>
      <use xlink:href="#DejaVuSans-Oblique-4e" transform="translate(1533.837891 0.015625)"/>
      <use xlink:href="#DejaVuSans-3d" transform="translate(1628.125 0.015625)"/>
      <use xlink:href="#DejaVuSans-31" transform="translate(1731.396484 0.015625)"/>
      <use xlink:href="#DejaVuSans-30" transform="translate(1795.019531 0.015625)"/>
      <use xlink:href="#DejaVuSerif-20" transform="translate(1858.642578 0.015625)"/>
      <use xlink:href="#DejaVuSerif-4c" transform="translate(1890.429688 0.015625)"/>
      <use xlink:href="#DejaVuSerif-6f" transform="translate(1956.835938 0.015625)"/>
      <use xlink:href="#DejaVuSerif-62" transform="translate(2017.041016 0.015625)"/>
      <use xlink:href="#DejaVuSerif-61" transform="translate(2081.054688 0.015625)"/>
      <use xlink:href="#DejaVuSerif-74" transform="translate(2140.673828 0.015625)"/>
      <use xlink:href="#DejaVuSerif-74" transform="translate(2180.859375 0.015625)"/>
      <use xlink:href="#DejaVuSerif-6f" transform="translate(2221.044922 0.015625)"/>
     </g>
    </g>
    <g id="line2d_38">
     <path d="M 282.527031 44.317062 
L 290.527031 44.317062 
L 298.527031 44.317062 
" style="fill: none; stroke-dasharray: 5.18,2.24; stroke-dashoffset: 0; stroke: #d97706; stroke-width: 1.4"/>
    </g>
    <g id="text_19">
     <!-- OpenSees estructural de alta fidelidad 200 mm -->
     <g transform="translate(304.927031 47.117062) scale(0.08 -0.08)">
      <use xlink:href="#DejaVuSerif-4f"/>
      <use xlink:href="#DejaVuSerif-70" transform="translate(81.982422 0)"/>
      <use xlink:href="#DejaVuSerif-65" transform="translate(145.996094 0)"/>
      <use xlink:href="#DejaVuSerif-6e" transform="translate(205.175781 0)"/>
      <use xlink:href="#DejaVuSerif-53" transform="translate(269.580078 0)"/>
      <use xlink:href="#DejaVuSerif-65" transform="translate(338.085938 0)"/>
      <use xlink:href="#DejaVuSerif-65" transform="translate(397.265625 0)"/>
      <use xlink:href="#DejaVuSerif-73" transform="translate(456.445312 0)"/>
      <use xlink:href="#DejaVuSerif-20" transform="translate(507.763672 0)"/>
      <use xlink:href="#DejaVuSerif-65" transform="translate(539.550781 0)"/>
      <use xlink:href="#DejaVuSerif-73" transform="translate(598.730469 0)"/>
      <use xlink:href="#DejaVuSerif-74" transform="translate(650.048828 0)"/>
      <use xlink:href="#DejaVuSerif-72" transform="translate(690.234375 0)"/>
      <use xlink:href="#DejaVuSerif-75" transform="translate(738.037109 0)"/>
      <use xlink:href="#DejaVuSerif-63" transform="translate(802.441406 0)"/>
      <use xlink:href="#DejaVuSerif-74" transform="translate(858.447266 0)"/>
      <use xlink:href="#DejaVuSerif-75" transform="translate(898.632812 0)"/>
      <use xlink:href="#DejaVuSerif-72" transform="translate(963.037109 0)"/>
      <use xlink:href="#DejaVuSerif-61" transform="translate(1010.839844 0)"/>
      <use xlink:href="#DejaVuSerif-6c" transform="translate(1070.458984 0)"/>
      <use xlink:href="#DejaVuSerif-20" transform="translate(1102.441406 0)"/>
      <use xlink:href="#DejaVuSerif-64" transform="translate(1134.228516 0)"/>
      <use xlink:href="#DejaVuSerif-65" transform="translate(1198.242188 0)"/>
      <use xlink:href="#DejaVuSerif-20" transform="translate(1257.421875 0)"/>
      <use xlink:href="#DejaVuSerif-61" transform="translate(1289.208984 0)"/>
      <use xlink:href="#DejaVuSerif-6c" transform="translate(1348.828125 0)"/>
      <use xlink:href="#DejaVuSerif-74" transform="translate(1380.810547 0)"/>
      <use xlink:href="#DejaVuSerif-61" transform="translate(1420.996094 0)"/>
      <use xlink:href="#DejaVuSerif-20" transform="translate(1480.615234 0)"/>
      <use xlink:href="#DejaVuSerif-66" transform="translate(1512.402344 0)"/>
      <use xlink:href="#DejaVuSerif-69" transform="translate(1549.414062 0)"/>
      <use xlink:href="#DejaVuSerif-64" transform="translate(1581.396484 0)"/>
      <use xlink:href="#DejaVuSerif-65" transform="translate(1645.410156 0)"/>
      <use xlink:href="#DejaVuSerif-6c" transform="translate(1704.589844 0)"/>
      <use xlink:href="#DejaVuSerif-69" transform="translate(1736.572266 0)"/>
      <use xlink:href="#DejaVuSerif-64" transform="translate(1768.554688 0)"/>
      <use xlink:href="#DejaVuSerif-61" transform="translate(1832.568359 0)"/>
      <use xlink:href="#DejaVuSerif-64" transform="translate(1892.1875 0)"/>
      <use xlink:href="#DejaVuSerif-20" transform="translate(1956.201172 0)"/>
      <use xlink:href="#DejaVuSerif-32" transform="translate(1987.988281 0)"/>
      <use xlink:href="#DejaVuSerif-30" transform="translate(2051.611328 0)"/>
      <use xlink:href="#DejaVuSerif-30" transform="translate(2115.234375 0)"/>
      <use xlink:href="#DejaVuSerif-20" transform="translate(2178.857422 0)"/>
      <use xlink:href="#DejaVuSerif-6d" transform="translate(2210.644531 0)"/>
      <use xlink:href="#DejaVuSerif-6d" transform="translate(2305.46875 0)"/>
     </g>
    </g>
    <g id="line2d_39">
     <path d="M 282.527031 56.059562 
L 290.527031 56.059562 
L 298.527031 56.059562 
" style="fill: none; stroke-dasharray: 7.68,1.92,1.2,1.92; stroke-dashoffset: 0; stroke: #2563eb; stroke-width: 1.2"/>
    </g>
    <g id="text_20">
     <!-- XFEM promovido -->
     <g transform="translate(304.927031 58.859562) scale(0.08 -0.08)">
      <defs>
       <path id="DejaVuSerif-58" d="M 2119 1997 
L 978 331 
L 1581 331 
L 1581 0 
L 38 0 
L 38 331 
L 575 331 
L 1919 2291 
L 556 4331 
L 56 4331 
L 56 4666 
L 1906 4666 
L 1906 4331 
L 1356 4331 
L 2356 2828 
L 3384 4331 
L 2784 4331 
L 2784 4666 
L 4313 4666 
L 4313 4331 
L 3788 4331 
L 2553 2534 
L 4025 331 
L 4525 331 
L 4525 0 
L 2675 0 
L 2675 331 
L 3231 331 
L 2119 1997 
z
" transform="scale(0.015625)"/>
       <path id="DejaVuSerif-46" d="M 353 0 
L 353 331 
L 947 331 
L 947 4331 
L 353 4331 
L 353 4666 
L 4172 4666 
L 4172 3628 
L 3788 3628 
L 3788 4281 
L 1581 4281 
L 1581 2719 
L 3175 2719 
L 3175 3303 
L 3559 3303 
L 3559 1753 
L 3175 1753 
L 3175 2338 
L 1581 2338 
L 1581 331 
L 2328 331 
L 2328 0 
L 353 0 
z
" transform="scale(0.015625)"/>
       <path id="DejaVuSerif-45" d="M 353 0 
L 353 331 
L 947 331 
L 947 4331 
L 353 4331 
L 353 4666 
L 4109 4666 
L 4109 3628 
L 3725 3628 
L 3725 4281 
L 1581 4281 
L 1581 2719 
L 3109 2719 
L 3109 3303 
L 3494 3303 
L 3494 1753 
L 3109 1753 
L 3109 2338 
L 1581 2338 
L 1581 384 
L 3775 384 
L 3775 1038 
L 4159 1038 
L 4159 0 
L 353 0 
z
" transform="scale(0.015625)"/>
       <path id="DejaVuSerif-4d" d="M 353 0 
L 353 331 
L 947 331 
L 947 4331 
L 319 4331 
L 319 4666 
L 1678 4666 
L 3316 1344 
L 4953 4666 
L 6228 4666 
L 6228 4331 
L 5606 4331 
L 5606 331 
L 6203 331 
L 6203 0 
L 4378 0 
L 4378 331 
L 4972 331 
L 4972 3938 
L 3372 684 
L 2931 684 
L 1331 3938 
L 1331 331 
L 1925 331 
L 1925 0 
L 353 0 
z
" transform="scale(0.015625)"/>
       <path id="DejaVuSerif-76" d="M 1581 0 
L 359 2988 
L -19 2988 
L -19 3322 
L 1509 3322 
L 1509 2988 
L 978 2988 
L 1913 703 
L 2847 2988 
L 2350 2988 
L 2350 3322 
L 3597 3322 
L 3597 2988 
L 3225 2988 
L 2003 0 
L 1581 0 
z
" transform="scale(0.015625)"/>
      </defs>
      <use xlink:href="#DejaVuSerif-58"/>
      <use xlink:href="#DejaVuSerif-46" transform="translate(71.191406 0)"/>
      <use xlink:href="#DejaVuSerif-45" transform="translate(140.576172 0)"/>
      <use xlink:href="#DejaVuSerif-4d" transform="translate(213.574219 0)"/>
      <use xlink:href="#DejaVuSerif-20" transform="translate(315.966797 0)"/>
      <use xlink:href="#DejaVuSerif-70" transform="translate(347.753906 0)"/>
      <use xlink:href="#DejaVuSerif-72" transform="translate(411.767578 0)"/>
      <use xlink:href="#DejaVuSerif-6f" transform="translate(459.570312 0)"/>
      <use xlink:href="#DejaVuSerif-6d" transform="translate(519.775391 0)"/>
      <use xlink:href="#DejaVuSerif-6f" transform="translate(614.599609 0)"/>
      <use xlink:href="#DejaVuSerif-76" transform="translate(674.804688 0)"/>
      <use xlink:href="#DejaVuSerif-69" transform="translate(731.298828 0)"/>
      <use xlink:href="#DejaVuSerif-64" transform="translate(763.28125 0)"/>
      <use xlink:href="#DejaVuSerif-6f" transform="translate(827.294922 0)"/>
     </g>
    </g>
    <g id="line2d_40">
     <path d="M 282.527031 67.802062 
L 290.527031 67.802062 
L 298.527031 67.802062 
" style="fill: none; stroke: #7c3aed; stroke-width: 1.25; stroke-linecap: square"/>
    </g>
    <g id="text_21">
     <!-- Ko-Bathe Hex27 3x3x12 corrot. sesgo basal 50 mm -->
     <g transform="translate(304.927031 70.602062) scale(0.08 -0.08)">
      <defs>
       <path id="DejaVuSerif-4b" d="M 353 0 
L 353 331 
L 947 331 
L 947 4331 
L 353 4331 
L 353 4666 
L 2175 4666 
L 2175 4331 
L 1581 4331 
L 1581 2566 
L 3591 4331 
L 3084 4331 
L 3084 4666 
L 4634 4666 
L 4634 4331 
L 4109 4331 
L 2106 2572 
L 4347 331 
L 4878 331 
L 4878 0 
L 3794 0 
L 1581 2216 
L 1581 331 
L 2175 331 
L 2175 0 
L 353 0 
z
" transform="scale(0.015625)"/>
       <path id="DejaVuSerif-2d" d="M 281 1959 
L 1881 1959 
L 1881 1472 
L 281 1472 
L 281 1959 
z
" transform="scale(0.015625)"/>
       <path id="DejaVuSerif-42" d="M 1581 331 
L 2516 331 
Q 3078 331 3337 575 
Q 3597 819 3597 1350 
Q 3597 1878 3339 2120 
Q 3081 2363 2516 2363 
L 1581 2363 
L 1581 331 
z
M 1581 2694 
L 2375 2694 
Q 2888 2694 3123 2891 
Q 3359 3088 3359 3513 
Q 3359 3941 3123 4136 
Q 2888 4331 2375 4331 
L 1581 4331 
L 1581 2694 
z
M 353 0 
L 353 331 
L 947 331 
L 947 4331 
L 353 4331 
L 353 4666 
L 2656 4666 
Q 3363 4666 3720 4377 
Q 4078 4088 4078 3513 
Q 4078 3097 3829 2850 
Q 3581 2603 3103 2547 
Q 3697 2472 4005 2167 
Q 4313 1863 4313 1350 
Q 4313 656 3875 328 
Q 3438 0 2509 0 
L 353 0 
z
" transform="scale(0.015625)"/>
       <path id="DejaVuSerif-37" d="M 3609 4347 
L 1784 0 
L 1319 0 
L 3059 4153 
L 903 4153 
L 903 3578 
L 538 3578 
L 538 4666 
L 3609 4666 
L 3609 4347 
z
" transform="scale(0.015625)"/>
       <path id="DejaVuSerif-33" d="M 622 4469 
Q 988 4606 1323 4678 
Q 1659 4750 1953 4750 
Q 2638 4750 3022 4454 
Q 3406 4159 3406 3634 
Q 3406 3213 3140 2930 
Q 2875 2647 2388 2547 
Q 2963 2466 3280 2130 
Q 3597 1794 3597 1259 
Q 3597 606 3158 257 
Q 2719 -91 1894 -91 
Q 1528 -91 1179 -12 
Q 831 66 488 225 
L 488 1131 
L 838 1131 
Q 869 681 1141 450 
Q 1413 219 1906 219 
Q 2384 219 2661 495 
Q 2938 772 2938 1253 
Q 2938 1803 2653 2086 
Q 2369 2369 1819 2369 
L 1522 2369 
L 1522 2688 
L 1678 2688 
Q 2225 2688 2498 2914 
Q 2772 3141 2772 3597 
Q 2772 4006 2547 4223 
Q 2322 4441 1900 4441 
Q 1478 4441 1245 4241 
Q 1013 4041 972 3647 
L 622 3647 
L 622 4469 
z
" transform="scale(0.015625)"/>
       <path id="DejaVuSerif-2e" d="M 603 325 
Q 603 500 722 622 
Q 841 744 1019 744 
Q 1191 744 1312 622 
Q 1434 500 1434 325 
Q 1434 153 1312 31 
Q 1191 -91 1019 -91 
Q 841 -91 722 29 
Q 603 150 603 325 
z
" transform="scale(0.015625)"/>
       <path id="DejaVuSerif-67" d="M 3359 2988 
L 3359 72 
Q 3359 -644 2965 -1033 
Q 2572 -1422 1844 -1422 
Q 1516 -1422 1216 -1362 
Q 916 -1303 641 -1184 
L 641 -488 
L 941 -488 
Q 997 -813 1206 -963 
Q 1416 -1113 1806 -1113 
Q 2313 -1113 2548 -827 
Q 2784 -541 2784 72 
L 2784 519 
Q 2616 206 2355 57 
Q 2094 -91 1709 -91 
Q 1097 -91 708 395 
Q 319 881 319 1663 
Q 319 2444 706 2928 
Q 1094 3413 1709 3413 
Q 2094 3413 2355 3264 
Q 2616 3116 2784 2803 
L 2784 3322 
L 3909 3322 
L 3909 2988 
L 3359 2988 
z
M 2784 1825 
Q 2784 2422 2554 2737 
Q 2325 3053 1888 3053 
Q 1444 3053 1217 2703 
Q 991 2353 991 1663 
Q 991 975 1217 622 
Q 1444 269 1888 269 
Q 2325 269 2554 583 
Q 2784 897 2784 1497 
L 2784 1825 
z
" transform="scale(0.015625)"/>
      </defs>
      <use xlink:href="#DejaVuSerif-4b"/>
      <use xlink:href="#DejaVuSerif-6f" transform="translate(72.082031 0)"/>
      <use xlink:href="#DejaVuSerif-2d" transform="translate(132.287109 0)"/>
      <use xlink:href="#DejaVuSerif-42" transform="translate(166.076172 0)"/>
      <use xlink:href="#DejaVuSerif-61" transform="translate(239.5625 0)"/>
      <use xlink:href="#DejaVuSerif-74" transform="translate(299.181641 0)"/>
      <use xlink:href="#DejaVuSerif-68" transform="translate(339.367188 0)"/>
      <use xlink:href="#DejaVuSerif-65" transform="translate(403.771484 0)"/>
      <use xlink:href="#DejaVuSerif-20" transform="translate(462.951172 0)"/>
      <use xlink:href="#DejaVuSerif-48" transform="translate(494.738281 0)"/>
      <use xlink:href="#DejaVuSerif-65" transform="translate(581.945312 0)"/>
      <use xlink:href="#DejaVuSerif-78" transform="translate(641.125 0)"/>
      <use xlink:href="#DejaVuSerif-32" transform="translate(697.521484 0)"/>
      <use xlink:href="#DejaVuSerif-37" transform="translate(761.144531 0)"/>
      <use xlink:href="#DejaVuSerif-20" transform="translate(824.767578 0)"/>
      <use xlink:href="#DejaVuSerif-33" transform="translate(856.554688 0)"/>
      <use xlink:href="#DejaVuSerif-78" transform="translate(920.177734 0)"/>
      <use xlink:href="#DejaVuSerif-33" transform="translate(976.574219 0)"/>
      <use xlink:href="#DejaVuSerif-78" transform="translate(1040.197266 0)"/>
      <use xlink:href="#DejaVuSerif-31" transform="translate(1096.59375 0)"/>
      <use xlink:href="#DejaVuSerif-32" transform="translate(1160.216797 0)"/>
      <use xlink:href="#DejaVuSerif-20" transform="translate(1223.839844 0)"/>
      <use xlink:href="#DejaVuSerif-63" transform="translate(1255.626953 0)"/>
      <use xlink:href="#DejaVuSerif-6f" transform="translate(1311.632812 0)"/>
      <use xlink:href="#DejaVuSerif-72" transform="translate(1371.837891 0)"/>
      <use xlink:href="#DejaVuSerif-72" transform="translate(1419.640625 0)"/>
      <use xlink:href="#DejaVuSerif-6f" transform="translate(1467.443359 0)"/>
      <use xlink:href="#DejaVuSerif-74" transform="translate(1527.648438 0)"/>
      <use xlink:href="#DejaVuSerif-2e" transform="translate(1567.833984 0)"/>
      <use xlink:href="#DejaVuSerif-20" transform="translate(1599.621094 0)"/>
      <use xlink:href="#DejaVuSerif-73" transform="translate(1631.408203 0)"/>
      <use xlink:href="#DejaVuSerif-65" transform="translate(1682.726562 0)"/>
      <use xlink:href="#DejaVuSerif-73" transform="translate(1741.90625 0)"/>
      <use xlink:href="#DejaVuSerif-67" transform="translate(1793.224609 0)"/>
      <use xlink:href="#DejaVuSerif-6f" transform="translate(1857.238281 0)"/>
      <use xlink:href="#DejaVuSerif-20" transform="translate(1917.443359 0)"/>
      <use xlink:href="#DejaVuSerif-62" transform="translate(1949.230469 0)"/>
      <use xlink:href="#DejaVuSerif-61" transform="translate(2013.244141 0)"/>
      <use xlink:href="#DejaVuSerif-73" transform="translate(2072.863281 0)"/>
      <use xlink:href="#DejaVuSerif-61" transform="translate(2124.181641 0)"/>
      <use xlink:href="#DejaVuSerif-6c" transform="translate(2183.800781 0)"/>
      <use xlink:href="#DejaVuSerif-20" transform="translate(2215.783203 0)"/>
      <use xlink:href="#DejaVuSerif-35" transform="translate(2247.570312 0)"/>
      <use xlink:href="#DejaVuSerif-30" transform="translate(2311.193359 0)"/>
      <use xlink:href="#DejaVuSerif-20" transform="translate(2374.816406 0)"/>
      <use xlink:href="#DejaVuSerif-6d" transform="translate(2406.603516 0)"/>
      <use xlink:href="#DejaVuSerif-6d" transform="translate(2501.427734 0)"/>
     </g>
    </g>
    <g id="line2d_41">
     <path d="M 282.527031 79.658312 
L 290.527031 79.658312 
L 298.527031 79.658312 
" style="fill: none; stroke-dasharray: 8.5,3.4; stroke-dashoffset: 0; stroke: #0d9488; stroke-width: 1.7"/>
    </g>
    <g id="text_22">
     <!-- Ko-Bathe 2x2x4 ancla corregida (diagnostico) -->
     <g transform="translate(304.927031 82.458312) scale(0.08 -0.08)">
      <defs>
       <path id="DejaVuSerif-28" d="M 2041 -997 
Q 1281 -656 893 83 
Q 506 822 506 1931 
Q 506 3044 893 3783 
Q 1281 4522 2041 4863 
L 2041 4556 
Q 1559 4225 1350 3623 
Q 1141 3022 1141 1931 
Q 1141 844 1350 242 
Q 1559 -359 2041 -691 
L 2041 -997 
z
" transform="scale(0.015625)"/>
       <path id="DejaVuSerif-29" d="M 453 -997 
L 453 -691 
Q 934 -359 1145 242 
Q 1356 844 1356 1931 
Q 1356 3022 1145 3623 
Q 934 4225 453 4556 
L 453 4863 
Q 1216 4522 1603 3783 
Q 1991 3044 1991 1931 
Q 1991 822 1603 83 
Q 1216 -656 453 -997 
z
" transform="scale(0.015625)"/>
      </defs>
      <use xlink:href="#DejaVuSerif-4b"/>
      <use xlink:href="#DejaVuSerif-6f" transform="translate(72.082031 0)"/>
      <use xlink:href="#DejaVuSerif-2d" transform="translate(132.287109 0)"/>
      <use xlink:href="#DejaVuSerif-42" transform="translate(166.076172 0)"/>
      <use xlink:href="#DejaVuSerif-61" transform="translate(239.5625 0)"/>
      <use xlink:href="#DejaVuSerif-74" transform="translate(299.181641 0)"/>
      <use xlink:href="#DejaVuSerif-68" transform="translate(339.367188 0)"/>
      <use xlink:href="#DejaVuSerif-65" transform="translate(403.771484 0)"/>
      <use xlink:href="#DejaVuSerif-20" transform="translate(462.951172 0)"/>
      <use xlink:href="#DejaVuSerif-32" transform="translate(494.738281 0)"/>
      <use xlink:href="#DejaVuSerif-78" transform="translate(558.361328 0)"/>
      <use xlink:href="#DejaVuSerif-32" transform="translate(614.757812 0)"/>
      <use xlink:href="#DejaVuSerif-78" transform="translate(678.380859 0)"/>
      <use xlink:href="#DejaVuSerif-34" transform="translate(734.777344 0)"/>
      <use xlink:href="#DejaVuSerif-20" transform="translate(798.400391 0)"/>
      <use xlink:href="#DejaVuSerif-61" transform="translate(830.1875 0)"/>
      <use xlink:href="#DejaVuSerif-6e" transform="translate(889.806641 0)"/>
      <use xlink:href="#DejaVuSerif-63" transform="translate(954.210938 0)"/>
      <use xlink:href="#DejaVuSerif-6c" transform="translate(1010.216797 0)"/>
      <use xlink:href="#DejaVuSerif-61" transform="translate(1042.199219 0)"/>
      <use xlink:href="#DejaVuSerif-20" transform="translate(1101.818359 0)"/>
      <use xlink:href="#DejaVuSerif-63" transform="translate(1133.605469 0)"/>
      <use xlink:href="#DejaVuSerif-6f" transform="translate(1189.611328 0)"/>
      <use xlink:href="#DejaVuSerif-72" transform="translate(1249.816406 0)"/>
      <use xlink:href="#DejaVuSerif-72" transform="translate(1297.619141 0)"/>
      <use xlink:href="#DejaVuSerif-65" transform="translate(1345.421875 0)"/>
      <use xlink:href="#DejaVuSerif-67" transform="translate(1404.601562 0)"/>
      <use xlink:href="#DejaVuSerif-69" transform="translate(1468.615234 0)"/>
      <use xlink:href="#DejaVuSerif-64" transform="translate(1500.597656 0)"/>
      <use xlink:href="#DejaVuSerif-61" transform="translate(1564.611328 0)"/>
      <use xlink:href="#DejaVuSerif-20" transform="translate(1624.230469 0)"/>
      <use xlink:href="#DejaVuSerif-28" transform="translate(1656.017578 0)"/>
      <use xlink:href="#DejaVuSerif-64" transform="translate(1695.03125 0)"/>
      <use xlink:href="#DejaVuSerif-69" transform="translate(1759.044922 0)"/>
      <use xlink:href="#DejaVuSerif-61" transform="translate(1791.027344 0)"/>
      <use xlink:href="#DejaVuSerif-67" transform="translate(1850.646484 0)"/>
      <use xlink:href="#DejaVuSerif-6e" transform="translate(1914.660156 0)"/>
      <use xlink:href="#DejaVuSerif-6f" transform="translate(1979.064453 0)"/>
      <use xlink:href="#DejaVuSerif-73" transform="translate(2039.269531 0)"/>
      <use xlink:href="#DejaVuSerif-74" transform="translate(2090.587891 0)"/>
      <use xlink:href="#DejaVuSerif-69" transform="translate(2130.773438 0)"/>
      <use xlink:href="#DejaVuSerif-63" transform="translate(2162.755859 0)"/>
      <use xlink:href="#DejaVuSerif-6f" transform="translate(2218.761719 0)"/>
      <use xlink:href="#DejaVuSerif-29" transform="translate(2278.966797 0)"/>
     </g>
    </g>
    <g id="line2d_42">
     <path d="M 282.527031 91.514562 
L 290.527031 91.514562 
L 298.527031 91.514562 
" style="fill: none; stroke: #dc2626; stroke-width: 1.7; stroke-linecap: square"/>
    </g>
    <g id="text_23">
     <!-- Ko-Bathe regularizado Newton-LM 200 mm -->
     <g transform="translate(304.927031 94.314562) scale(0.08 -0.08)">
      <defs>
       <path id="DejaVuSerif-77" d="M 3072 3322 
L 3922 728 
L 4672 2988 
L 4191 2988 
L 4191 3322 
L 5394 3322 
L 5394 2988 
L 5025 2988 
L 4038 0 
L 3559 0 
L 2741 2484 
L 1919 0 
L 1459 0 
L 475 2988 
L 103 2988 
L 103 3322 
L 1606 3322 
L 1606 2988 
L 1069 2988 
L 1813 728 
L 2669 3322 
L 3072 3322 
z
" transform="scale(0.015625)"/>
      </defs>
      <use xlink:href="#DejaVuSerif-4b"/>
      <use xlink:href="#DejaVuSerif-6f" transform="translate(72.082031 0)"/>
      <use xlink:href="#DejaVuSerif-2d" transform="translate(132.287109 0)"/>
      <use xlink:href="#DejaVuSerif-42" transform="translate(166.076172 0)"/>
      <use xlink:href="#DejaVuSerif-61" transform="translate(239.5625 0)"/>
      <use xlink:href="#DejaVuSerif-74" transform="translate(299.181641 0)"/>
      <use xlink:href="#DejaVuSerif-68" transform="translate(339.367188 0)"/>
      <use xlink:href="#DejaVuSerif-65" transform="translate(403.771484 0)"/>
      <use xlink:href="#DejaVuSerif-20" transform="translate(462.951172 0)"/>
      <use xlink:href="#DejaVuSerif-72" transform="translate(494.738281 0)"/>
      <use xlink:href="#DejaVuSerif-65" transform="translate(542.541016 0)"/>
      <use xlink:href="#DejaVuSerif-67" transform="translate(601.720703 0)"/>
      <use xlink:href="#DejaVuSerif-75" transform="translate(665.734375 0)"/>
      <use xlink:href="#DejaVuSerif-6c" transform="translate(730.138672 0)"/>
      <use xlink:href="#DejaVuSerif-61" transform="translate(762.121094 0)"/>
      <use xlink:href="#DejaVuSerif-72" transform="translate(821.740234 0)"/>
      <use xlink:href="#DejaVuSerif-69" transform="translate(869.542969 0)"/>
      <use xlink:href="#DejaVuSerif-7a" transform="translate(901.525391 0)"/>
      <use xlink:href="#DejaVuSerif-61" transform="translate(954.210938 0)"/>
      <use xlink:href="#DejaVuSerif-64" transform="translate(1013.830078 0)"/>
      <use xlink:href="#DejaVuSerif-6f" transform="translate(1077.84375 0)"/>
      <use xlink:href="#DejaVuSerif-20" transform="translate(1138.048828 0)"/>
      <use xlink:href="#DejaVuSerif-4e" transform="translate(1169.835938 0)"/>
      <use xlink:href="#DejaVuSerif-65" transform="translate(1257.335938 0)"/>
      <use xlink:href="#DejaVuSerif-77" transform="translate(1316.515625 0)"/>
      <use xlink:href="#DejaVuSerif-74" transform="translate(1402.111328 0)"/>
      <use xlink:href="#DejaVuSerif-6f" transform="translate(1442.296875 0)"/>
      <use xlink:href="#DejaVuSerif-6e" transform="translate(1502.501953 0)"/>
      <use xlink:href="#DejaVuSerif-2d" transform="translate(1566.90625 0)"/>
      <use xlink:href="#DejaVuSerif-4c" transform="translate(1600.695312 0)"/>
      <use xlink:href="#DejaVuSerif-4d" transform="translate(1667.101562 0)"/>
      <use xlink:href="#DejaVuSerif-20" transform="translate(1769.494141 0)"/>
      <use xlink:href="#DejaVuSerif-32" transform="translate(1801.28125 0)"/>
      <use xlink:href="#DejaVuSerif-30" transform="translate(1864.904297 0)"/>
      <use xlink:href="#DejaVuSerif-30" transform="translate(1928.527344 0)"/>
      <use xlink:href="#DejaVuSerif-20" transform="translate(1992.150391 0)"/>
      <use xlink:href="#DejaVuSerif-6d" transform="translate(2023.9375 0)"/>
      <use xlink:href="#DejaVuSerif-6d" transform="translate(2118.761719 0)"/>
     </g>
    </g>
   </g>
  </g>
 </g>
 <defs>
  <clipPath id="pe02b7e1afc">
   <rect x="45.904531" y="21.838312" width="473.92" height="296.2"/>
  </clipPath>
 </defs>
</svg>
